<?xml version="1.0" encoding="UTF-8"?>
<svg version="1.1" xmlns="http://www.w3.org/2000/svg" width="1200" height="1848">
<path d="M0 0 C3.21608912 0.00566408 6.43217292 0.00846981 9.64826584 0.0110817 C43.22495735 0.05065945 76.60402336 0.72691828 110.09336472 3.31805801 C112.41365825 3.49165151 114.73397125 3.6649851 117.05430222 3.83807755 C198.89361635 10.0258282 280.28800226 22.07616549 360.09336472 41.31805801 C360.92593796 41.51830582 361.7585112 41.71855362 362.61631393 41.92486954 C441.16841306 60.8682894 517.66130266 88.20725642 599.83994675 131.95233536 C600.63965897 132.39701157 601.43937119 132.84168777 602.26331711 133.29983902 C603.16919067 133.80385742 603.16919067 133.80385742 604.09336472 134.31805801 C604.19632555 195.49289927 604.29170517 256.66775056 604.34742355 317.84265518 C604.3482519 318.74978532 604.34908024 319.65691545 604.34993368 320.59153438 C604.36789611 340.31156686 604.38451649 360.03160026 604.39975669 379.75163503 C604.40723993 389.42400409 604.41501936 399.09637291 604.42295456 408.76874161 C604.42373911 409.7311975 604.42452367 410.6936534 604.425332 411.68527463 C604.45084571 442.81434847 604.49587264 473.94335645 604.55114804 505.07239049 C604.60790326 537.09338107 604.64471424 569.11433529 604.65685466 601.13537532 C604.65858328 605.67048992 604.66053709 610.2056044 604.66262817 614.74071884 C604.66303271 615.63318997 604.66343725 616.52566111 604.66385405 617.44517682 C604.67091153 631.74267303 604.69865038 646.04005594 604.73435692 660.33750616 C604.76990836 674.75298148 604.78311616 689.16834583 604.77437298 703.58386335 C604.77024463 711.37762003 604.77549381 719.17107392 604.80859756 726.96476936 C604.93357307 757.54379672 604.88373576 787.34387856 598.09336472 817.31805801 C597.68349628 819.29433972 597.27809852 821.27155739 596.87852669 823.24994659 C595.99033738 827.63325917 594.97661532 831.97617472 593.90586472 836.31805801 C593.72149857 837.08081039 593.53713242 837.84356277 593.34717941 838.62942886 C573.53964324 920.36713331 537.61767429 998.67672111 489.09336472 1067.31805801 C488.59224167 1068.02784805 488.09111862 1068.73763809 487.57481003 1069.46893692 C476.86109158 1084.5916342 465.67484431 1099.33249298 453.58945847 1113.38837051 C451.28341411 1116.09499534 449.05888219 1118.84981541 446.84336472 1121.63055801 C442.39983438 1127.09705936 437.61034018 1132.20566148 432.7603569 1137.30951309 C429.39519112 1140.85086793 426.09159603 1144.43095596 422.84727097 1148.08368301 C418.07928156 1153.4020596 413.08670699 1158.47664134 408.02720261 1163.51459122 C406.52529547 1165.01110727 405.02885409 1166.51294101 403.53281784 1168.01532364 C398.78022978 1172.77119249 393.9759158 1177.41581108 388.86558151 1181.7909584 C386.09548339 1184.17792131 383.44742311 1186.69189694 380.78086472 1189.19305801 C375.96100394 1193.6767307 371.01832493 1197.93430032 365.88242722 1202.05633926 C363.40630803 1204.06428465 360.97897516 1206.11900267 358.56284714 1208.19842911 C351.01719883 1214.67999197 343.17109767 1220.7254385 335.2266655 1226.70819473 C333.18525229 1228.24871644 331.15206481 1229.79946698 329.12070847 1231.35321426 C319.02572183 1239.0441514 308.64625108 1246.27079005 298.09336472 1253.31805801 C297.32073288 1253.83448868 296.54810104 1254.35091934 295.75205612 1254.88299942 C273.2141304 1269.88148052 250.04870712 1283.7116909 226.09336472 1296.31805801 C224.1843326 1297.3333485 222.2754778 1298.34897245 220.36680222 1299.36493301 C157.32022421 1332.76473665 90.39082996 1356.86433126 21.66593552 1375.60257339 C19.86699952 1376.10289433 18.07397612 1376.62474778 16.28593063 1377.16269302 C6.61431839 1380.00442945 -0.45357953 1379.50863535 -10.11366653 1376.74774551 C-11.09516678 1376.47528 -12.07666702 1376.20281448 -13.0879097 1375.92209244 C-16.30193505 1375.0247487 -19.51074346 1374.11032638 -22.71913528 1373.19305801 C-23.82598679 1372.87949356 -24.93283829 1372.56592911 -26.07323074 1372.2428627 C-70.32892481 1359.69159578 -113.81806238 1344.95366108 -155.90663528 1326.31805801 C-156.53336136 1326.04068802 -157.16008743 1325.76331802 -157.80580521 1325.47754288 C-184.31694111 1313.72906582 -210.28231646 1301.25182333 -235.41591263 1286.74481583 C-237.61653524 1285.48423569 -239.82748328 1284.24827598 -242.05116653 1283.02899551 C-258.49896245 1274.00215405 -274.43133715 1263.92110556 -289.90663528 1253.31805801 C-291.10565324 1252.50786494 -292.3048874 1251.69799178 -293.50429153 1250.88837051 C-309.09386989 1240.31850378 -324.21928708 1229.10787443 -338.90663528 1217.31805801 C-339.53634232 1216.81451797 -340.16604935 1216.31097794 -340.81483841 1215.79217911 C-353.91873688 1205.29937765 -366.67411131 1194.43617821 -378.98476028 1183.02118301 C-380.9007189 1181.24866515 -382.82750566 1179.48776505 -384.76601028 1177.73993301 C-392.15098389 1171.06505303 -399.23538141 1164.09666052 -406.28163528 1157.06805801 C-406.99316757 1156.36040802 -406.99316757 1156.36040802 -407.71907425 1155.63846207 C-412.77411399 1150.60519903 -417.71103137 1145.53031796 -422.35536575 1140.11444473 C-424.7527144 1137.33828934 -427.27267737 1134.68042885 -429.78163528 1132.00555801 C-434.26405803 1127.18704091 -438.52099258 1122.24622868 -442.64101028 1117.11102676 C-444.66550803 1114.61530972 -446.73929781 1112.17100039 -448.83754349 1109.73724747 C-455.02399891 1102.54285567 -460.75811911 1095.06179347 -466.36952591 1087.41278458 C-467.38068546 1086.03480666 -468.39492784 1084.65908472 -469.41249466 1083.28583145 C-489.6281571 1055.99599476 -507.88140389 1027.26254754 -523.90663528 997.31805801 C-524.42016556 996.3633461 -524.93369583 995.40863419 -525.46278763 994.42499161 C-558.26027649 933.18196998 -582.22380249 866.22917994 -593.52833283 797.5893513 C-593.79717685 795.9752364 -594.09221979 794.36538954 -594.40510738 792.75923097 C-596.56565805 780.27042901 -596.17773324 767.70434003 -596.14714432 755.07187271 C-596.14801716 752.39103964 -596.14968552 749.71021771 -596.15232265 747.02938688 C-596.15645145 741.21533922 -596.15321469 735.40133267 -596.14504623 729.58728981 C-596.13293412 720.94214228 -596.13237852 712.29702046 -596.13413021 703.65186599 C-596.13675307 689.10659453 -596.130094 674.56134129 -596.1180954 660.01607513 C-596.10625042 645.62005523 -596.0985613 631.22404293 -596.09638977 616.82801819 C-596.09625229 615.93201418 -596.09611481 615.03601017 -596.09597317 614.11285452 C-596.09529648 609.56227089 -596.09469372 605.01168725 -596.09411941 600.4611036 C-596.08992161 568.25195825 -596.07645531 536.04282279 -596.05751419 503.83368301 C-596.03913751 472.54820178 -596.02497411 441.26272326 -596.01649857 409.9772377 C-596.01623551 409.01242489 -596.01597246 408.04761208 -596.01570144 407.05356252 C-596.01306434 397.36427747 -596.01051272 387.6749924 -596.00802372 377.9857073 C-596.00295166 358.24853947 -595.99730916 338.51137182 -595.99132156 318.77420425 C-595.99104698 317.86677498 -595.9907724 316.95934571 -595.9904895 316.02441858 C-595.97209656 255.4556276 -595.94040714 194.88684213 -595.90663528 134.31805801 C-595.36829937 134.03484821 -594.82996346 133.75163841 -594.27531433 133.4598465 C-591.80047985 132.15780241 -589.32572504 130.85560697 -586.85097122 129.55340958 C-585.581008 128.88530762 -585.581008 128.88530762 -584.28538895 128.20370865 C-579.45222059 125.66038106 -574.62269071 123.11040887 -569.79726028 120.55243301 C-494.01866761 80.64768885 -411.64674321 54.61282427 -126.90663528 5.31805801 C-126.0121669 5.24027115 -125.11769852 5.16248428 -124.19612503 5.08234024 C-121.59339224 4.85804018 -118.99036505 4.63769919 -116.38710403 4.41962051 C-115.30299995 4.32794098 -115.30299995 4.32794098 -114.19699478 4.23440933 C-76.17110933 1.11873583 -38.14475228 -0.06838163 0 0 Z " fill="#000000" transform="translate(595.9066352844238,-0.3180580139160156)"/>
<path d="M0 0 C0.66238678 0.27873962 1.32477356 0.55747925 2.00723267 0.84466553 C13.9965436 5.91113264 25.64367537 11.5754496 37.06474304 17.81880188 C38.04926295 18.35672017 39.03378286 18.89463846 40.04813671 19.44885731 C40.7953766 19.8576094 41.54261648 20.26636148 42.3125 20.6875 C42.398183 72.06022271 42.47777405 123.43295054 42.5242157 174.8057251 C42.52490598 175.56734699 42.52559627 176.32896887 42.52630747 177.11367021 C42.54127571 193.66999377 42.55512609 210.22631809 42.56782665 226.78264354 C42.57406275 234.90311019 42.5805456 243.02357662 42.5871582 251.14404297 C42.5881389 252.35610046 42.5881389 252.35610046 42.5891394 253.59264397 C42.61040575 279.73344175 42.64793194 305.87418512 42.6939861 332.01495 C42.74126816 358.90182399 42.77195473 385.78866793 42.78207495 412.67558279 C42.7835155 416.48242443 42.78514368 420.28926597 42.78688622 424.09610748 C42.78722333 424.84527035 42.78756045 425.59443322 42.78790778 426.36629799 C42.79379198 438.37425607 42.81691587 450.38212059 42.84666017 462.39004068 C42.87626633 474.49326544 42.88729778 486.59639844 42.88000689 498.69965807 C42.87656359 505.24482548 42.88151593 511.78977442 42.90852737 518.33489799 C43.10432928 568.21748578 43.10432928 568.21748578 37.3125 591.6875 C36.97344918 593.23392048 36.6403164 594.78165719 36.31468678 596.33095932 C35.58790926 599.76161304 34.78589972 603.16013881 33.9375 606.5625 C33.49325684 608.36485107 33.49325684 608.36485107 33.04003906 610.20361328 C25.62192316 639.71515481 15.37679695 670.16065553 2.28466797 697.64160156 C1.16184166 700.00455598 0.05217425 702.3735415 -1.05859375 704.7421875 C-21.91856012 749.0167974 -47.01944046 790.24325328 -78.27246094 827.96826172 C-79.53252665 829.49921112 -80.77169469 831.04730647 -82.0078125 832.59765625 C-86.9127933 838.74245692 -92.14761474 844.50750989 -97.55249023 850.21118164 C-100.43809248 853.2578984 -103.2616657 856.33205225 -105.99609375 859.515625 C-110.31369781 864.48411508 -114.96196105 869.10794997 -119.625 873.75 C-120.48029297 874.60916016 -121.33558594 875.46832031 -122.21679688 876.35351562 C-126.66012317 880.79006339 -131.1660748 885.08321737 -135.92944336 889.17456055 C-138.33850203 891.24773602 -140.66557638 893.4059718 -143 895.5625 C-147.43246474 899.60029322 -151.96492177 903.46057434 -156.6328125 907.22265625 C-158.8706158 909.02835175 -161.09231899 910.84729312 -163.3046875 912.68359375 C-230.78083067 968.48754496 -310.36437419 1006.13938363 -394.6875 1034.6875 C-395.80092773 1035.06374512 -396.91435547 1035.43999023 -398.06152344 1035.82763672 C-408.3046809 1039.25580356 -418.63270549 1042.31583136 -429.0625 1045.125 C-430.00851074 1045.38466553 -430.95452148 1045.64433105 -431.92919922 1045.91186523 C-442.06032018 1048.55425223 -449.17636007 1047.60931628 -459.0625 1044.5625 C-460.11743652 1044.24627686 -461.17237305 1043.93005371 -462.25927734 1043.60424805 C-469.38296502 1041.44988527 -476.45553914 1039.15676814 -483.49902344 1036.75415039 C-489.10952068 1034.84640093 -494.75461373 1033.19157666 -500.4765625 1031.64453125 C-503.47194675 1030.75174641 -506.37183626 1029.70935142 -509.28955078 1028.59155273 C-512.1722103 1027.50475899 -515.07325835 1026.47568913 -517.9765625 1025.4453125 C-536.22849271 1018.9194267 -554.00435913 1011.62083224 -571.6875 1003.6875 C-572.81043457 1003.18653809 -573.93336914 1002.68557617 -575.09033203 1002.16943359 C-578.27260706 1000.74674167 -581.45004512 999.31394601 -584.625 997.875 C-585.52847168 997.46765625 -586.43194336 997.0603125 -587.36279297 996.640625 C-595.35429589 992.97364253 -602.88148702 988.85070692 -610.6875 984.6875 C-610.6875 873.8075 -610.6875 762.9275 -610.6875 648.6875 C-602.15799687 655.99850268 -593.89751789 663.39894061 -586.00683594 671.38745117 C-583.33744737 674.07786868 -580.63983546 676.67320276 -577.75 679.125 C-573.4088693 682.81360166 -569.46915659 686.87993757 -565.46728516 690.92724609 C-562.02729512 694.39120123 -558.50205056 697.65867384 -554.77734375 700.81640625 C-551.41176936 703.82969622 -548.28060392 707.0747099 -545.10693359 710.28759766 C-542.40321251 713.0117821 -539.68000269 715.64100194 -536.75 718.125 C-533.02792307 721.28759982 -529.61883928 724.71720696 -526.1875 728.1875 C-522.77679676 731.63687883 -519.39128516 735.04869902 -515.6875 738.1875 C-511.36331294 741.8520653 -507.44667709 745.90270866 -503.46484375 749.9296875 C-500.62108423 752.79324117 -497.76874916 755.5762719 -494.6875 758.1875 C-490.36410106 761.85139741 -486.44812019 765.90121646 -482.46704102 769.92749023 C-479.02713479 773.39136446 -475.5019615 776.65874934 -471.77734375 779.81640625 C-468.41715875 782.82487095 -465.29071191 786.06428233 -462.12231445 789.2722168 C-458.7440292 792.67627 -455.28421313 795.9149041 -451.6015625 798.9921875 C-449.85475926 800.53935608 -448.21337218 802.14014547 -446.56787109 803.79345703 C-446.02826752 804.33503448 -445.48866394 804.87661194 -444.93270874 805.43460083 C-444.52178986 805.84805756 -444.11087097 806.26151428 -443.6875 806.6875 C-443.22896925 765.75282423 -442.87692912 724.8184852 -442.66619341 683.88175102 C-442.64118153 679.0406293 -442.61529487 674.19951262 -442.58886719 669.35839844 C-442.58362098 668.39468546 -442.57837477 667.43097248 -442.57296959 666.43805608 C-442.48611914 650.8664491 -442.32853056 635.29633014 -442.14444408 619.72560373 C-441.9569123 603.72914456 -441.84622076 587.73346055 -441.8057301 571.73594737 C-441.77838674 561.8764329 -441.69229416 552.02112466 -441.52917066 542.1629065 C-441.42282342 535.3876504 -441.39163309 528.6145438 -441.41747245 521.83851519 C-441.4301956 517.93654846 -441.411799 514.0418834 -441.3033905 510.14124298 C-440.93948705 496.36842668 -440.7008851 484.38751291 -450.61053777 473.71476626 C-454.76781155 469.75368314 -459.15068383 466.19937082 -463.6875 462.6875 C-468.75381312 458.39969079 -473.55034781 453.93345848 -478.1875 449.1875 C-482.21540431 445.1087704 -486.29009775 441.20175254 -490.6640625 437.4921875 C-493.78619597 434.70758197 -496.689159 431.70618507 -499.62597656 428.72949219 C-502.18889692 426.14531748 -504.78710585 423.66631529 -507.5625 421.3125 C-511.30293247 418.12620567 -514.73553498 414.67869746 -518.1875 411.1875 C-521.57755591 407.75904618 -524.93944033 404.36489237 -528.625 401.25 C-533.19944308 397.37483484 -537.33446919 393.06523454 -541.54785156 388.80761719 C-545.14187714 385.19039188 -548.8046827 381.75112491 -552.69921875 378.45703125 C-555.81188432 375.68682004 -558.70109292 372.6940857 -561.6262207 369.72924805 C-564.18905837 367.14515304 -566.78719381 364.66624069 -569.5625 362.3125 C-573.30293247 359.12620567 -576.73553498 355.67869746 -580.1875 352.1875 C-583.57755591 348.75904618 -586.93944033 345.36489237 -590.625 342.25 C-595.3456257 338.26030989 -599.61722489 333.80607684 -603.94116211 329.39672852 C-604.52518799 328.80432373 -605.10921387 328.21191895 -605.7109375 327.6015625 C-606.49863525 326.7964624 -606.49863525 326.7964624 -607.30224609 325.97509766 C-608.6785379 324.57473997 -608.6785379 324.57473997 -610.6875 323.6875 C-610.6875 430.6075 -610.6875 537.5275 -610.6875 647.6875 C-614.22051043 645.92099478 -615.85629861 644.74878708 -618.515625 642.01953125 C-619.23363281 641.29056641 -619.95164062 640.56160156 -620.69140625 639.81054688 C-621.80322266 638.66682617 -621.80322266 638.66682617 -622.9375 637.5 C-627.74459036 632.57764194 -632.58769826 627.82658644 -637.80761719 623.3425293 C-640.74057754 620.76038148 -643.45790253 617.98114483 -646.1875 615.1875 C-650.21540431 611.1087704 -654.29009775 607.20175254 -658.6640625 603.4921875 C-661.78619597 600.70758197 -664.689159 597.70618507 -667.62597656 594.72949219 C-670.18889692 592.14531748 -672.78710585 589.66631529 -675.5625 587.3125 C-679.30293247 584.12620567 -682.73553498 580.67869746 -686.1875 577.1875 C-689.57755591 573.75904618 -692.93944033 570.36489237 -696.625 567.25 C-701.20101762 563.373501 -705.33736201 559.0622532 -709.55224609 554.80322266 C-713.10191758 551.23068081 -716.71898977 547.84153123 -720.56640625 544.58984375 C-724.1633365 541.36386763 -727.50984186 537.88422515 -730.90600586 534.44946289 C-734.36801016 530.96330858 -737.91596921 527.67095016 -741.6640625 524.4921875 C-744.27767576 522.16112702 -746.72903889 519.67933577 -749.1875 517.1875 C-752.19982082 514.13434107 -755.22298829 511.1467765 -758.5 508.375 C-763.25534936 504.33444219 -767.57499054 499.84915823 -771.94067383 495.3972168 C-772.81695435 494.50836792 -772.81695435 494.50836792 -773.7109375 493.6015625 C-774.23606934 493.0648291 -774.76120117 492.5280957 -775.30224609 491.97509766 C-776.6785379 490.57473997 -776.6785379 490.57473997 -778.6875 489.6875 C-778.6875 611.7875 -778.6875 733.8875 -778.6875 859.6875 C-780.3375 858.0375 -781.9875 856.3875 -783.6875 854.6875 C-784.32171875 854.07648437 -784.9559375 853.46546875 -785.609375 852.8359375 C-790.28594576 848.29926415 -794.40926565 843.46674452 -798.484375 838.38671875 C-800.40357528 836.03535812 -802.3826334 833.79436141 -804.4375 831.5625 C-810.64521517 824.64322854 -816.11192031 817.11591161 -821.6875 809.6875 C-822.26338867 808.9258252 -822.83927734 808.16415039 -823.43261719 807.37939453 C-851.24301058 770.56054782 -875.15002031 729.39556705 -892.6875 686.6875 C-892.99993652 685.9337207 -893.31237305 685.17994141 -893.63427734 684.40332031 C-898.76515232 671.98225424 -903.41792894 659.42942086 -907.6875 646.6875 C-907.94241211 645.93210937 -908.19732422 645.17671875 -908.45996094 644.3984375 C-915.85925161 622.3064071 -921.41238824 599.58070067 -925.6875 576.6875 C-925.86285215 575.81777463 -926.03820431 574.94804926 -926.21887016 574.05196857 C-928.12821709 563.48646772 -927.9543387 552.99375615 -927.91455078 542.29174805 C-927.91398574 540.15192673 -927.91430503 538.01210503 -927.91543579 535.87228394 C-927.91600669 530.09841004 -927.90429516 524.32462021 -927.89028788 518.55076575 C-927.87773646 512.50364092 -927.87660655 506.4565139 -927.87423706 500.40937805 C-927.86803522 488.97397668 -927.851642 477.53861381 -927.83153808 466.10322934 C-927.80913866 453.07778809 -927.7981755 440.05234494 -927.78814721 427.0268892 C-927.76727458 400.24707151 -927.7321239 373.46728792 -927.6875 346.6875 C-926.56491632 347.6430724 -925.44327055 348.59974671 -924.32202148 349.55688477 C-923.38494606 350.35582909 -923.38494606 350.35582909 -922.42893982 351.1709137 C-920.43929301 352.90365868 -918.58297314 354.72785275 -916.75 356.625 C-914.24982526 359.16334535 -911.71595362 361.56986289 -909 363.875 C-905.20414296 367.13180042 -901.70127547 370.63362438 -898.1875 374.1875 C-894.17838259 378.24216262 -890.12885484 382.12728163 -885.77734375 385.81640625 C-882.41176936 388.82969622 -879.28060392 392.0747099 -876.10693359 395.28759766 C-873.40321251 398.0117821 -870.68000269 400.64100194 -867.75 403.125 C-864.02792307 406.28759982 -860.61883928 409.71720696 -857.1875 413.1875 C-853.77679676 416.63687883 -850.39128516 420.04869902 -846.6875 423.1875 C-842.36410106 426.85139741 -838.44812019 430.90121646 -834.46704102 434.92749023 C-831.02713479 438.39136446 -827.5019615 441.65874934 -823.77734375 444.81640625 C-820.41176936 447.82969622 -817.28060392 451.0747099 -814.10693359 454.28759766 C-811.40321251 457.0117821 -808.68000269 459.64100194 -805.75 462.125 C-801.41753256 465.8062406 -797.48502154 469.86352074 -793.49145508 473.90307617 C-789.38742456 478.03602104 -785.14229939 481.93345557 -780.6875 485.6875 C-780.3575 486.0175 -780.0275 486.3475 -779.6875 486.6875 C-779.3575 379.7675 -779.0275 272.8475 -778.6875 162.6875 C-770.79861111 169.44940476 -770.79861111 169.44940476 -767.63671875 172.421875 C-766.59632446 173.39942749 -766.59632446 173.39942749 -765.53491211 174.39672852 C-764.82214111 175.07018311 -764.10937012 175.7436377 -763.375 176.4375 C-762.62806885 177.14124756 -761.8811377 177.84499512 -761.11157227 178.57006836 C-756.24956893 183.1664403 -751.49616102 187.84701132 -746.796875 192.609375 C-744.88192603 194.49595435 -742.92108789 196.25828882 -740.875 198 C-737.11615137 201.209889 -733.66007321 204.67539835 -730.1875 208.1875 C-726.17837701 212.24215534 -722.12885492 216.12728156 -717.77734375 219.81640625 C-714.41176936 222.82969622 -711.28060392 226.0747099 -708.10693359 229.28759766 C-705.40321251 232.0117821 -702.68000269 234.64100194 -699.75 237.125 C-696.02792307 240.28759982 -692.61883928 243.71720696 -689.1875 247.1875 C-685.77679676 250.63687883 -682.39128516 254.04869902 -678.6875 257.1875 C-674.36410106 260.85139741 -670.44812019 264.90121646 -666.46704102 268.92749023 C-663.02713479 272.39136446 -659.5019615 275.65874934 -655.77734375 278.81640625 C-652.41176936 281.82969622 -649.28060392 285.0747099 -646.10693359 288.28759766 C-643.40321251 291.0117821 -640.68000269 293.64100194 -637.75 296.125 C-633.50039624 299.7296535 -629.63944823 303.70305915 -625.78149414 307.71850586 C-621.01138136 312.59646858 -616.15277024 316.31528381 -610.6875 320.6875 C-610.6875 191.9875 -610.6875 63.2875 -610.6875 -69.3125 C-574.49074751 -73.98304871 -574.49074751 -73.98304871 -556.4375 -75.4375 C-555.44789276 -75.51932526 -554.45828552 -75.60115051 -553.43869019 -75.68545532 C-534.87092223 -77.22027047 -516.29982268 -78.4768354 -497.6875 -79.3125 C-495.78145996 -79.39927002 -495.78145996 -79.39927002 -493.83691406 -79.48779297 C-393.37385079 -83.84058962 -292.18024578 -75.45757376 0 0 Z " fill="#FCB314" transform="translate(1042.6875,200.3125)"/>
<path d="M0 0 C160.05 0 320.1 0 485 0 C485 90.28850243 485 90.28850243 476.625 123.875 C476.18075684 125.67735107 476.18075684 125.67735107 475.72753906 127.51611328 C468.30942316 157.02765481 458.06429695 187.47315553 444.97216797 214.95410156 C443.84934166 217.31705598 442.73967425 219.6860415 441.62890625 222.0546875 C420.76893988 266.3292974 395.66805954 307.55575328 364.41503906 345.28076172 C363.15497335 346.81171112 361.91580531 348.35980647 360.6796875 349.91015625 C355.7747067 356.05495692 350.53988526 361.82000989 345.13500977 367.52368164 C342.24940752 370.5703984 339.4258343 373.64455225 336.69140625 376.828125 C332.37380219 381.79661508 327.72553895 386.42044997 323.0625 391.0625 C322.20720703 391.92166016 321.35191406 392.78082031 320.47070312 393.66601562 C316.02737683 398.10256339 311.5214252 402.39571737 306.75805664 406.48706055 C304.34899797 408.56023602 302.02192362 410.7184718 299.6875 412.875 C295.25503526 416.91279322 290.72257823 420.77307434 286.0546875 424.53515625 C283.8168842 426.34085175 281.59518101 428.15979312 279.3828125 429.99609375 C211.90666933 485.80004496 132.32312581 523.45188363 48 552 C46.88657227 552.37624512 45.77314453 552.75249023 44.62597656 553.14013672 C34.3828191 556.56830356 24.05479451 559.62833136 13.625 562.4375 C12.67898926 562.69716553 11.73297852 562.95683105 10.75830078 563.22436523 C0.62717982 565.86675223 -6.48886007 564.92181628 -16.375 561.875 C-17.42993652 561.55877686 -18.48487305 561.24255371 -19.57177734 560.91674805 C-26.69546502 558.76238527 -33.76803914 556.46926814 -40.81152344 554.06665039 C-46.42202068 552.15890093 -52.06711373 550.50407666 -57.7890625 548.95703125 C-60.78444675 548.06424641 -63.68433626 547.02185142 -66.60205078 545.90405273 C-69.4847103 544.81725899 -72.38575835 543.78818913 -75.2890625 542.7578125 C-93.54099271 536.2319267 -111.31685913 528.93333224 -129 521 C-130.12293457 520.49903809 -131.24586914 519.99807617 -132.40283203 519.48193359 C-135.58510706 518.05924167 -138.76254512 516.62644601 -141.9375 515.1875 C-143.29270752 514.57648438 -143.29270752 514.57648438 -144.67529297 513.953125 C-152.66679589 510.28614253 -160.19398702 506.16320692 -168 502 C-168 391.12 -168 280.24 -168 166 C-159.47049687 173.31100268 -151.21001789 180.71144061 -143.31933594 188.69995117 C-140.64994737 191.39036868 -137.95233546 193.98570276 -135.0625 196.4375 C-130.7213693 200.12610166 -126.78165659 204.19243757 -122.77978516 208.23974609 C-119.33979512 211.70370123 -115.81455056 214.97117384 -112.08984375 218.12890625 C-108.72426936 221.14219622 -105.59310392 224.3872099 -102.41943359 227.60009766 C-99.71571251 230.3242821 -96.99250269 232.95350194 -94.0625 235.4375 C-90.34042307 238.60009982 -86.93133928 242.02970696 -83.5 245.5 C-80.08929676 248.94937883 -76.70378516 252.36119902 -73 255.5 C-68.67581294 259.1645653 -64.75917709 263.21520866 -60.77734375 267.2421875 C-57.93358423 270.10574117 -55.08124916 272.8887719 -52 275.5 C-47.67660106 279.16389741 -43.76062019 283.21371646 -39.77954102 287.23999023 C-36.33963479 290.70386446 -32.8144615 293.97124934 -29.08984375 297.12890625 C-25.72965875 300.13737095 -22.60321191 303.37678233 -19.43481445 306.5847168 C-16.0565292 309.98877 -12.59671313 313.2274041 -8.9140625 316.3046875 C-6.15961265 318.74434308 -3.60181795 321.39818205 -1 324 C-0.67 217.08 -0.34 110.16 0 0 Z " fill="#DA2128" transform="translate(600,683)"/>
<path d="M0 0 C3.21608912 0.00566408 6.43217292 0.00846981 9.64826584 0.0110817 C43.22495735 0.05065945 76.60402336 0.72691828 110.09336472 3.31805801 C112.41365825 3.49165151 114.73397125 3.6649851 117.05430222 3.83807755 C198.89361635 10.0258282 280.28800226 22.07616549 360.09336472 41.31805801 C360.92593796 41.51830582 361.7585112 41.71855362 362.61631393 41.92486954 C441.16841306 60.8682894 517.66130266 88.20725642 599.83994675 131.95233536 C600.63965897 132.39701157 601.43937119 132.84168777 602.26331711 133.29983902 C603.16919067 133.80385742 603.16919067 133.80385742 604.09336472 134.31805801 C604.19632555 195.49289927 604.29170517 256.66775056 604.34742355 317.84265518 C604.3482519 318.74978532 604.34908024 319.65691545 604.34993368 320.59153438 C604.36789611 340.31156686 604.38451649 360.03160026 604.39975669 379.75163503 C604.40723993 389.42400409 604.41501936 399.09637291 604.42295456 408.76874161 C604.42373911 409.7311975 604.42452367 410.6936534 604.425332 411.68527463 C604.45084571 442.81434847 604.49587264 473.94335645 604.55114804 505.07239049 C604.60790326 537.09338107 604.64471424 569.11433529 604.65685466 601.13537532 C604.65858328 605.67048992 604.66053709 610.2056044 604.66262817 614.74071884 C604.66303271 615.63318997 604.66343725 616.52566111 604.66385405 617.44517682 C604.67091153 631.74267303 604.69865038 646.04005594 604.73435692 660.33750616 C604.76990836 674.75298148 604.78311616 689.16834583 604.77437298 703.58386335 C604.77024463 711.37762003 604.77549381 719.17107392 604.80859756 726.96476936 C604.93357307 757.54379672 604.88373576 787.34387856 598.09336472 817.31805801 C597.68349628 819.29433972 597.27809852 821.27155739 596.87852669 823.24994659 C595.99033738 827.63325917 594.97661532 831.97617472 593.90586472 836.31805801 C593.72149857 837.08081039 593.53713242 837.84356277 593.34717941 838.62942886 C573.53964324 920.36713331 537.61767429 998.67672111 489.09336472 1067.31805801 C488.59224167 1068.02784805 488.09111862 1068.73763809 487.57481003 1069.46893692 C476.86109158 1084.5916342 465.67484431 1099.33249298 453.58945847 1113.38837051 C451.28341411 1116.09499534 449.05888219 1118.84981541 446.84336472 1121.63055801 C442.39983438 1127.09705936 437.61034018 1132.20566148 432.7603569 1137.30951309 C429.39519112 1140.85086793 426.09159603 1144.43095596 422.84727097 1148.08368301 C418.07928156 1153.4020596 413.08670699 1158.47664134 408.02720261 1163.51459122 C406.52529547 1165.01110727 405.02885409 1166.51294101 403.53281784 1168.01532364 C398.78022978 1172.77119249 393.9759158 1177.41581108 388.86558151 1181.7909584 C386.09548339 1184.17792131 383.44742311 1186.69189694 380.78086472 1189.19305801 C375.96100394 1193.6767307 371.01832493 1197.93430032 365.88242722 1202.05633926 C363.40630803 1204.06428465 360.97897516 1206.11900267 358.56284714 1208.19842911 C351.01719883 1214.67999197 343.17109767 1220.7254385 335.2266655 1226.70819473 C333.18525229 1228.24871644 331.15206481 1229.79946698 329.12070847 1231.35321426 C319.02572183 1239.0441514 308.64625108 1246.27079005 298.09336472 1253.31805801 C297.32073288 1253.83448868 296.54810104 1254.35091934 295.75205612 1254.88299942 C273.2141304 1269.88148052 250.04870712 1283.7116909 226.09336472 1296.31805801 C224.1843326 1297.3333485 222.2754778 1298.34897245 220.36680222 1299.36493301 C157.32022421 1332.76473665 90.39082996 1356.86433126 21.66593552 1375.60257339 C19.86699952 1376.10289433 18.07397612 1376.62474778 16.28593063 1377.16269302 C6.61431839 1380.00442945 -0.45357953 1379.50863535 -10.11366653 1376.74774551 C-11.09516678 1376.47528 -12.07666702 1376.20281448 -13.0879097 1375.92209244 C-16.30193505 1375.0247487 -19.51074346 1374.11032638 -22.71913528 1373.19305801 C-23.82598679 1372.87949356 -24.93283829 1372.56592911 -26.07323074 1372.2428627 C-70.32892481 1359.69159578 -113.81806238 1344.95366108 -155.90663528 1326.31805801 C-156.53336136 1326.04068802 -157.16008743 1325.76331802 -157.80580521 1325.47754288 C-184.31694111 1313.72906582 -210.28231646 1301.25182333 -235.41591263 1286.74481583 C-237.61653524 1285.48423569 -239.82748328 1284.24827598 -242.05116653 1283.02899551 C-258.49896245 1274.00215405 -274.43133715 1263.92110556 -289.90663528 1253.31805801 C-291.10565324 1252.50786494 -292.3048874 1251.69799178 -293.50429153 1250.88837051 C-309.09386989 1240.31850378 -324.21928708 1229.10787443 -338.90663528 1217.31805801 C-339.53634232 1216.81451797 -340.16604935 1216.31097794 -340.81483841 1215.79217911 C-353.91873688 1205.29937765 -366.67411131 1194.43617821 -378.98476028 1183.02118301 C-380.9007189 1181.24866515 -382.82750566 1179.48776505 -384.76601028 1177.73993301 C-392.15098389 1171.06505303 -399.23538141 1164.09666052 -406.28163528 1157.06805801 C-406.99316757 1156.36040802 -406.99316757 1156.36040802 -407.71907425 1155.63846207 C-412.77411399 1150.60519903 -417.71103137 1145.53031796 -422.35536575 1140.11444473 C-424.7527144 1137.33828934 -427.27267737 1134.68042885 -429.78163528 1132.00555801 C-434.26405803 1127.18704091 -438.52099258 1122.24622868 -442.64101028 1117.11102676 C-444.66550803 1114.61530972 -446.73929781 1112.17100039 -448.83754349 1109.73724747 C-455.02399891 1102.54285567 -460.75811911 1095.06179347 -466.36952591 1087.41278458 C-467.38068546 1086.03480666 -468.39492784 1084.65908472 -469.41249466 1083.28583145 C-489.6281571 1055.99599476 -507.88140389 1027.26254754 -523.90663528 997.31805801 C-524.42016556 996.3633461 -524.93369583 995.40863419 -525.46278763 994.42499161 C-558.26027649 933.18196998 -582.22380249 866.22917994 -593.52833283 797.5893513 C-593.79717685 795.9752364 -594.09221979 794.36538954 -594.40510738 792.75923097 C-596.56565805 780.27042901 -596.17773324 767.70434003 -596.14714432 755.07187271 C-596.14801716 752.39103964 -596.14968552 749.71021771 -596.15232265 747.02938688 C-596.15645145 741.21533922 -596.15321469 735.40133267 -596.14504623 729.58728981 C-596.13293412 720.94214228 -596.13237852 712.29702046 -596.13413021 703.65186599 C-596.13675307 689.10659453 -596.130094 674.56134129 -596.1180954 660.01607513 C-596.10625042 645.62005523 -596.0985613 631.22404293 -596.09638977 616.82801819 C-596.09625229 615.93201418 -596.09611481 615.03601017 -596.09597317 614.11285452 C-596.09529648 609.56227089 -596.09469372 605.01168725 -596.09411941 600.4611036 C-596.08992161 568.25195825 -596.07645531 536.04282279 -596.05751419 503.83368301 C-596.03913751 472.54820178 -596.02497411 441.26272326 -596.01649857 409.9772377 C-596.01623551 409.01242489 -596.01597246 408.04761208 -596.01570144 407.05356252 C-596.01306434 397.36427747 -596.01051272 387.6749924 -596.00802372 377.9857073 C-596.00295166 358.24853947 -595.99730916 338.51137182 -595.99132156 318.77420425 C-595.99104698 317.86677498 -595.9907724 316.95934571 -595.9904895 316.02441858 C-595.97209656 255.4556276 -595.94040714 194.88684213 -595.90663528 134.31805801 C-595.36829937 134.03484821 -594.82996346 133.75163841 -594.27531433 133.4598465 C-591.80047985 132.15780241 -589.32572504 130.85560697 -586.85097122 129.55340958 C-585.581008 128.88530762 -585.581008 128.88530762 -584.28538895 128.20370865 C-579.45222059 125.66038106 -574.62269071 123.11040887 -569.79726028 120.55243301 C-494.01866761 80.64768885 -411.64674321 54.61282427 -126.90663528 5.31805801 C-126.0121669 5.24027115 -125.11769852 5.16248428 -124.19612503 5.08234024 C-121.59339224 4.85804018 -118.99036505 4.63769919 -116.38710403 4.41962051 C-115.30299995 4.32794098 -115.30299995 4.32794098 -114.19699478 4.23440933 C-76.17110933 1.11873583 -38.14475228 -0.06838163 0 0 Z M-114.3177681 60.96991348 C-120.44245615 61.56404989 -126.58041376 61.96187439 -132.71913528 62.38055801 C-140.50198012 62.92679193 -148.15075742 63.6466592 -155.85585403 64.88446426 C-160.27738043 65.51287583 -164.70615155 65.7519491 -169.16444778 65.97430801 C-172.34103124 66.26610274 -175.38802126 66.71350951 -178.52772903 67.25555801 C-184.94428784 68.36089806 -191.37313057 69.11299182 -197.84413528 69.81805801 C-206.57074504 70.80029761 -215.24174423 71.88505508 -223.90663528 73.31805801 C-225.72282477 73.59811325 -227.53925767 73.87659179 -229.35585403 74.15399551 C-242.19781063 76.13312693 -254.93356824 78.43708618 -267.66054153 81.05243301 C-271.68228033 81.87708566 -275.7074952 82.66071208 -279.74647903 83.39618301 C-293.94053791 85.99298324 -307.98160456 89.10241725 -322.03163528 92.38055801 C-323.40614853 92.7010965 -323.40614853 92.7010965 -324.80842972 93.0281105 C-341.56111911 96.94373103 -358.23361253 101.04354416 -374.78163528 105.75555801 C-376.75940796 106.31640797 -378.73738072 106.87654581 -380.71544266 107.43637466 C-382.05055591 107.81450807 -383.38545479 108.19339918 -384.72014236 108.57303238 C-388.23397992 109.57068702 -391.75146616 110.55137052 -395.27724075 111.5060463 C-405.286321 114.22407646 -415.15512253 117.24322488 -424.98622513 120.5475502 C-427.29993694 121.32420139 -429.61674922 122.09103782 -431.93397903 122.85712051 C-439.52411258 125.3839378 -446.96652018 128.06353981 -454.32216263 131.22333145 C-458.00641189 132.78389953 -461.76117808 134.10865752 -465.53163528 135.44305801 C-487.21263177 143.28645106 -508.15690197 152.93009586 -528.78163528 163.19305801 C-529.76486771 163.68225723 -530.74810013 164.17145645 -531.76112747 164.67547989 C-532.67281693 165.13245255 -533.58450638 165.5894252 -534.52382278 166.06024551 C-535.34479446 166.47129532 -536.16576614 166.88234512 -537.01161575 167.30585098 C-538.86134568 168.17591493 -538.86134568 168.17591493 -539.90663528 169.31805801 C-540.01132534 172.47165834 -540.04945654 175.60358066 -540.04644299 178.75782108 C-540.04939441 179.76627879 -540.05234583 180.77473649 -540.05538669 181.81375352 C-540.0641414 185.23860205 -540.06566412 188.66341706 -540.06726456 192.08827591 C-540.07199134 194.55073747 -540.07714167 197.01319825 -540.08268219 199.47565812 C-540.09517409 205.56373061 -540.10289032 211.65179328 -540.10858098 217.7398746 C-540.11562655 225.0291116 -540.12838603 232.31833583 -540.14113017 239.60756468 C-540.17303907 258.08069479 -540.19283676 276.55383339 -540.21041569 295.02698186 C-540.21518351 300.03571744 -540.22019233 305.04445276 -540.22522092 310.05318809 C-540.25629118 341.16854175 -540.28290033 372.28389757 -540.2996397 403.39926243 C-540.30357676 410.61462597 -540.30758861 417.82998947 -540.31166458 425.04535294 C-540.31216625 425.94175287 -540.31266792 426.8381528 -540.31318479 427.76171636 C-540.32956081 456.75003458 -540.36795157 485.73826776 -540.41895169 514.72654423 C-540.4713267 544.55105523 -540.50397736 574.37552102 -540.51121723 604.20007892 C-540.51224565 608.42527456 -540.51348195 612.65047012 -540.51483727 616.87566566 C-540.5150953 617.70713168 -540.51535334 618.53859769 -540.5156192 619.39525964 C-540.52029103 632.70800609 -540.54513112 646.02063979 -540.57758869 659.33334425 C-540.60984105 672.75956179 -540.619512 686.18565411 -540.60715675 699.61190573 C-540.60106638 706.86897796 -540.60426093 714.1257289 -540.63532639 721.38274574 C-540.75668584 750.9660338 -540.33393454 779.35455324 -533.90663528 808.31805801 C-533.28794702 811.23827297 -532.67931299 814.16058285 -532.06878185 817.08251286 C-529.30457483 830.28205504 -526.03331109 843.24792648 -521.66908646 856.0138588 C-520.73366032 858.84080463 -519.87251021 861.68732796 -519.00819778 864.53680801 C-496.72486263 937.28950998 -459.0142282 1007.53163678 -410.90663528 1066.31805801 C-409.63497596 1067.92156998 -408.36417324 1069.52576156 -407.09413528 1071.13055801 C-399.78014519 1080.25522402 -392.22559456 1089.11984635 -384.22987747 1097.65326309 C-381.65110784 1100.40769455 -379.13550965 1103.19956126 -376.67299271 1106.05878067 C-373.16771186 1110.07146289 -369.49571617 1113.87416965 -365.72304153 1117.63446426 C-365.06384216 1118.29462036 -364.40464279 1118.95477646 -363.72546768 1119.63493729 C-362.34266694 1121.01841307 -360.95862453 1122.40064885 -359.57338333 1123.78168106 C-357.47433186 1125.87537471 -355.38067589 1127.97435676 -353.28749466 1130.07391739 C-351.93299743 1131.42775372 -350.57818997 1132.78127977 -349.22304153 1134.13446426 C-348.60820404 1134.75132599 -347.99336655 1135.36818771 -347.35989761 1136.00374222 C-343.58248755 1139.76122242 -339.68587008 1143.33079047 -335.65156937 1146.81123734 C-333.42817041 1148.73123166 -331.26223311 1150.71101412 -329.09413528 1152.69305801 C-324.8291822 1156.53734046 -320.45802679 1160.21332707 -315.99257278 1163.82196426 C-313.75723712 1165.63003957 -311.53475323 1167.44918565 -309.32069778 1169.28290176 C-253.79398565 1215.11660126 -189.1464527 1252.61126662 -122.2865181 1279.35272598 C-118.98368951 1280.69242482 -115.72989825 1282.12905314 -112.46913528 1283.56805801 C-106.05710177 1286.33849599 -99.51610945 1288.65428016 -92.91444778 1290.92352676 C-87.01448959 1292.95712631 -81.20421777 1295.19818682 -75.40663528 1297.50555801 C-57.92927432 1304.21058244 -40.04759664 1309.58359445 -21.98915482 1314.47137833 C-18.86878721 1315.32845379 -15.76042898 1316.22090318 -12.65272903 1317.12274551 C-11.65386673 1317.40811172 -10.65500443 1317.69347794 -9.62587357 1317.98749161 C-7.74271293 1318.52558269 -5.86197399 1319.07225278 -3.984272 1319.62909317 C0.78396123 1320.97155242 4.19361919 1321.63195625 9.09336472 1320.31805801 C10.10527878 1320.10149551 11.11719284 1319.88493301 12.15977097 1319.66180801 C49.84847618 1310.56598642 87.30271856 1297.13464469 123.09336472 1282.31805801 C124.18697311 1281.8681752 125.28058151 1281.41829239 126.40732956 1280.95477676 C153.48273087 1269.76040499 180.46273002 1257.54567564 206.09336472 1243.31805801 C206.96074265 1242.83981583 207.82812057 1242.36157364 208.72178268 1241.86883926 C228.66518867 1230.84355512 248.33390381 1219.27190096 267.09336472 1206.31805801 C268.23901901 1205.52963516 268.23901901 1205.52963516 269.40781784 1204.72528458 C280.83294202 1196.84635354 292.08876101 1188.7751119 303.09336472 1180.31805801 C304.00142868 1179.62051407 304.00142868 1179.62051407 304.92783737 1178.90887833 C312.9492248 1172.72459851 320.76047466 1166.32332071 328.44590378 1159.7272377 C330.12145262 1158.29403262 331.80563445 1156.87156064 333.49180222 1155.45087051 C347.51134482 1143.60540739 360.60498871 1130.8992525 373.59336472 1117.94305801 C374.20786484 1117.33123672 374.82236496 1116.71941544 375.4554863 1116.08905411 C381.89177138 1109.67404636 388.20355821 1103.24493322 394.09336472 1096.31805801 C395.73394771 1094.52158251 397.37921687 1092.729366 399.03086472 1090.94305801 C402.90927545 1086.68969519 406.57399946 1082.33219535 410.12852097 1077.80633926 C412.07777807 1075.33779696 414.08018834 1072.92213079 416.09336472 1070.50555801 C417.76851987 1068.44929795 419.43581986 1066.38841673 421.09336472 1064.31805801 C421.88879684 1063.32491592 421.88879684 1063.32491592 422.70029831 1062.31171036 C440.65315429 1039.71647944 456.77793115 1015.36884405 471.09336472 990.31805801 C471.63332077 989.38187637 472.17327682 988.44569473 472.72959518 987.48114395 C492.51509821 953.1001432 508.44109142 917.4924299 522.09336472 880.31805801 C522.69450474 878.71112907 523.2960131 877.10433782 523.89805222 875.49774551 C527.67757385 865.26837521 530.55620337 854.82544705 533.31138229 844.27923965 C533.87496814 842.14507395 534.45198296 840.0144385 535.03745651 837.88617325 C537.40382154 829.23117462 539.42969969 820.55034615 541.22105026 811.75873184 C541.65242527 809.64739219 542.09412821 807.53839842 542.53672409 805.42938614 C543.44140371 801.06844281 544.27604253 796.69612683 545.09336472 792.31805801 C545.22898018 791.59793949 545.36459564 790.87782097 545.50432066 790.13588068 C548.14227611 775.72423298 548.51162804 761.64158185 548.45412827 747.02075577 C548.45543908 744.51623905 548.45807056 742.01172273 548.46189576 739.50720859 C548.46717347 734.09694902 548.46327926 728.68682098 548.45098114 723.27657509 C548.43274618 715.23199007 548.43198567 707.18746692 548.43460711 699.142865 C548.43853336 685.60532945 548.4285836 672.0678381 548.41055489 658.5303154 C548.39276613 645.13846238 548.38124946 631.74662778 548.37799644 618.35476303 C548.37768712 617.10287456 548.37768712 617.10287456 548.37737154 615.82569541 C548.37635645 611.58672752 548.37545233 607.34775961 548.37459091 603.10879168 C548.36830004 573.13247342 548.34811698 543.15617917 548.31968307 513.17987442 C548.29210256 484.06952415 548.27086508 454.95918046 548.25815964 425.84881973 C548.25756777 424.50139195 548.25756777 424.50139195 548.25696394 423.12674339 C548.25300817 414.10528568 548.24918076 405.08382792 548.24544737 396.06237012 C548.23783999 377.68680398 548.22937624 359.31123827 548.22039413 340.93567276 C548.21998226 340.09090874 548.21957039 339.24614472 548.21914604 338.37578179 C548.19157288 282.02319714 548.14397803 225.6706261 548.09336472 169.31805801 C545.07996271 167.72234196 542.06495237 166.12968784 539.04966354 164.53754044 C538.20462517 164.09001167 537.35958679 163.64248291 536.48894119 163.18139267 C529.35588566 159.4180319 522.14187187 155.93007591 514.78086472 152.63055801 C514.13995895 152.3429158 513.49905319 152.05527359 512.83872604 151.75891495 C472.89307884 133.88830296 431.32738788 118.79421863 389.09336472 107.31805801 C386.88563389 106.70042725 384.67917596 106.07843451 382.47300339 105.45526505 C380.27906836 104.84235757 378.08307244 104.23803366 375.88608932 103.63617325 C372.65246194 102.74992403 369.42335801 101.84909534 366.19639206 100.93890762 C353.16706751 97.28987455 340.08658649 94.20554614 326.84336472 91.44305801 C324.81210226 91.01465026 322.78085251 90.58618226 320.74961472 90.15765762 C302.79754494 86.39014492 284.78994124 82.92637118 266.75606918 79.57512283 C261.80232371 78.65105258 256.86250362 77.67058689 251.92539597 76.66180801 C246.87656433 75.64302955 241.89970906 74.81230666 236.78086472 74.25555801 C232.62656576 73.79975719 228.57109388 73.23317149 224.48667526 72.36346817 C219.29588725 71.31305711 214.11305377 70.63998033 208.85117722 70.06415176 C207.45498657 69.90548378 207.45498657 69.90548378 206.03059006 69.74361038 C203.09361804 69.41024279 200.15606667 69.08242567 197.21836472 68.75555801 C194.25931059 68.42455416 191.30041846 68.09228301 188.34186935 67.75679398 C186.51024886 67.54924488 184.67832777 67.34432718 182.84608078 67.14238358 C182.01776749 67.04881073 181.18945419 66.95523788 180.3360405 66.8588295 C179.61119461 66.77825806 178.88634872 66.69768661 178.13953781 66.61467361 C176.09336472 66.31805801 176.09336472 66.31805801 174.03303146 65.80183792 C171.10058106 65.07044394 168.16833597 64.99809899 165.15586472 64.81805801 C158.58221755 64.42434225 158.58221755 64.42434225 155.90928268 63.8432045 C152.16871383 63.14561792 148.41867872 62.89771961 144.62852097 62.63446426 C143.79993073 62.57403442 142.97134048 62.51360458 142.11764145 62.45134354 C139.46392097 62.25810717 136.80993128 62.06897666 134.15586472 61.88055801 C130.70906359 61.63438116 127.26246965 61.38552605 123.81602097 61.13446426 C122.93493668 61.07101822 122.05385239 61.00757217 121.14606857 60.94220352 C116.75317353 60.61848978 112.36886538 60.25852263 107.98643112 59.81415176 C92.51498129 58.25085617 77.04073747 57.68141396 61.50370407 57.25279617 C59.30682777 57.19204769 57.11000703 57.12953093 54.91318893 57.06671524 C-1.35991617 55.46896412 -58.25845905 55.17354114 -114.3177681 60.96991348 Z " fill="#FCB314" transform="translate(595.9066352844238,-0.3180580139160156)"/>
<path d="M0 0 C101.42414914 -0.94748055 202.83070092 7.94555106 465.6875 80.3125 C466.34988678 80.59123962 467.01227356 80.86997925 467.69473267 81.15716553 C481.55646203 87.01488299 494.78341931 93.79095598 508 101 C508 250.16 508 399.32 508 553 C507.67 553 507.34 553 507 553 C506.79246094 552.07960938 506.58492187 551.15921875 506.37109375 550.2109375 C501.87032673 531.71824624 493.14138453 515.49852374 476.8046875 504.93359375 C461.62150586 495.6964514 446.23879598 492.7613483 428.578125 492.5859375 C427.35212585 492.56657135 426.12612671 492.5472052 424.86297607 492.5272522 C420.99205223 492.46803079 417.1210977 492.42130269 413.25 492.375 C410.6067587 492.33676729 407.96352916 492.29771258 405.3203125 492.2578125 C398.88031358 492.16237723 392.44024238 492.07716605 386 492 C385.99635437 491.43418213 385.99270874 490.86836426 385.98895264 490.28540039 C385.94663846 484.31356975 385.87696469 478.34247322 385.79248047 472.37109375 C385.76452208 470.15241901 385.74318474 467.93364932 385.72900391 465.71484375 C385.6206786 449.71158529 385.09985169 434.29569676 377.4375 419.8125 C377.09871826 419.16015381 376.75993652 418.50780762 376.41088867 417.83569336 C367.03500902 400.57626681 352.88039464 390.83544888 334.8125 383.75 C316.53721552 378.87659081 296.87635355 381.6153201 280.4284668 390.59057617 C266.21250723 398.89806858 255.91734547 411.7135242 250 427 C244.07496496 448.1763153 244.07496496 448.1763153 245 492 C195.17 492 145.34 492 94 492 C94 430.95 94 369.9 94 307 C109.18 306.67 124.36 306.34 140 306 C153.38242592 303.22423577 153.38242592 303.22423577 165.5 298.1875 C166.48613281 297.66929687 166.48613281 297.66929687 167.4921875 297.140625 C172.7826368 294.28629168 177.53669498 291.04122185 182 287 C183.00740234 286.12988281 183.00740234 286.12988281 184.03515625 285.2421875 C196.80400139 273.48205652 203.43300079 256.92129811 204.23828125 239.80859375 C204.70684875 221.39430935 199.79231813 204.53319911 187.5 190.5 C186.0201993 188.98006911 184.52150202 187.47818524 183 186 C182.39929688 185.37867188 181.79859375 184.75734375 181.1796875 184.1171875 C163.56819213 167.11561405 140.43296033 166.39434053 117.4375 166.25 C115.15427494 166.22177399 112.87107036 166.19183759 110.58789062 166.16015625 C105.05867433 166.08709024 99.52958169 166.03499032 94 166 C93.99191315 165.34204437 93.98382629 164.68408875 93.97549438 164.00619507 C93.88874625 157.09411854 93.78922141 150.18230598 93.68261719 143.27050781 C93.64457713 140.69861317 93.60968307 138.12666984 93.578125 135.5546875 C93.53192716 131.83576164 93.47402838 128.11716393 93.4140625 124.3984375 C93.40251129 123.26763763 93.39096008 122.13683777 93.37905884 120.97177124 C92.98949489 99.40359175 87.49914004 80.21330241 72.375 64.24609375 C58.18688845 50.82806062 42.05463364 46.85819505 23 44 C23 29.81 23 15.62 23 1 C15.41 1 7.82 1 0 1 C0 0.67 0 0.34 0 0 Z " fill="#D92128" transform="translate(577,120)"/>
<path d="M0 0 C0.33 0 0.66 0 1 0 C1.11774615 8.7735564 1.20562521 17.54682619 1.25906086 26.32101059 C1.28475441 30.39870566 1.31937618 34.47584656 1.37719727 38.55322266 C1.66397706 59.34682548 0.60110397 78.6089313 -4 99 C-4.32034197 100.50932904 -4.63887374 102.0190445 -4.95483398 103.52929688 C-5.70621533 106.99465957 -6.51712996 110.43465968 -7.375 113.875 C-7.67116211 115.07656738 -7.96732422 116.27813477 -8.27246094 117.51611328 C-15.69057684 147.02765481 -25.93570305 177.47315553 -39.02783203 204.95410156 C-40.15065834 207.31705598 -41.26032575 209.6860415 -42.37109375 212.0546875 C-63.23106012 256.3292974 -88.33194046 297.55575328 -119.58496094 335.28076172 C-120.84502665 336.81171112 -122.08419469 338.35980647 -123.3203125 339.91015625 C-128.2252933 346.05495692 -133.46011474 351.82000989 -138.86499023 357.52368164 C-141.75059248 360.5703984 -144.5741657 363.64455225 -147.30859375 366.828125 C-151.62619781 371.79661508 -156.27446105 376.42044997 -160.9375 381.0625 C-161.79279297 381.92166016 -162.64808594 382.78082031 -163.52929688 383.66601562 C-167.97262317 388.10256339 -172.4785748 392.39571737 -177.24194336 396.48706055 C-179.65100203 398.56023602 -181.97807638 400.7184718 -184.3125 402.875 C-188.74496474 406.91279322 -193.27742177 410.77307434 -197.9453125 414.53515625 C-200.1831158 416.34085175 -202.40481899 418.15979312 -204.6171875 419.99609375 C-272.09333067 475.80004496 -351.67687419 513.45188363 -436 542 C-437.11342773 542.37624512 -438.22685547 542.75249023 -439.37402344 543.14013672 C-474.8105855 555 -474.8105855 555 -484 555 C-484 539.82 -484 524.64 -484 509 C-479.05 508.34 -474.1 507.68 -469 507 C-450.95958972 501.89766174 -434.64203952 492.79346381 -424.93261719 476.17285156 C-416.40272704 460.79170503 -413.93633787 446.58127512 -413.68359375 429.08984375 C-413.6524221 427.27777184 -413.6524221 427.27777184 -413.62062073 425.42909241 C-413.55562961 421.59861527 -413.49647635 417.76807399 -413.4375 413.9375 C-413.39426674 411.32876961 -413.35065097 408.72004552 -413.30664062 406.11132812 C-413.20000042 399.74095175 -413.09814361 393.37051263 -413 387 C-412.40246414 386.99413376 -411.80492828 386.98826752 -411.18928528 386.98222351 C-404.90983003 386.91775792 -398.63086241 386.83320888 -392.35180664 386.73754883 C-390.01560946 386.704513 -387.67933656 386.67641635 -385.34301758 386.65356445 C-362.76741409 386.56301369 -362.76741409 386.56301369 -341.6875 379.1875 C-341.00872803 378.83421631 -340.32995605 378.48093262 -339.63061523 378.11694336 C-334.71003445 375.50301433 -330.16081931 372.73290135 -326 369 C-324.91525391 368.05253906 -324.91525391 368.05253906 -323.80859375 367.0859375 C-312.83859693 356.87697261 -307.74617672 345.13257225 -304 331 C-303.82186768 330.36489502 -303.64373535 329.72979004 -303.46020508 329.07543945 C-299.79542606 312.54796656 -303.86164781 294.87571843 -312.27734375 280.51953125 C-322.67719171 265.30886927 -337.39456702 254.32212432 -355 249 C-374.04691284 245.53692494 -393.64520227 246.41180421 -413 246 C-413 184.95 -413 123.9 -413 61 C-363.17 61 -313.34 61 -262 61 C-261.67 77.5 -261.34 94 -261 111 C-258.04047743 123.02092927 -258.04047743 123.02092927 -253.4375 134.1875 C-253.10016846 134.84621094 -252.76283691 135.50492188 -252.4152832 136.18359375 C-243.62321652 152.48435784 -228.25265814 163.04336692 -211.0234375 169.03515625 C-192.93255056 174.06040262 -174.83867152 171.60683576 -158.25 163.3125 C-140.74901759 152.99613142 -129.10462851 136.95914988 -123.5078125 117.4765625 C-122.05523556 110.39245648 -121.80841151 103.36266122 -121.68359375 96.15625 C-121.6524221 94.64170227 -121.6524221 94.64170227 -121.62062073 93.09655762 C-121.55567534 89.8977687 -121.49649815 86.69890358 -121.4375 83.5 C-121.39426236 81.32030489 -121.35064647 79.14061724 -121.30664062 76.9609375 C-121.20005102 71.64070358 -121.09818652 66.32039528 -121 61 C-120.38042419 60.99413376 -119.76084839 60.98826752 -119.12249756 60.98222351 C-112.56625418 60.91737438 -106.01046115 60.83274415 -99.45458984 60.73754883 C-97.02073168 60.70466752 -94.58680399 60.67652645 -92.15283203 60.65356445 C-80.31933226 60.5389838 -68.56058949 60.39039284 -56.83203125 58.68359375 C-56.06095032 58.57375656 -55.28986938 58.46391937 -54.49542236 58.35075378 C-37.62912976 55.5689213 -23.44619495 45.28541577 -13.0703125 32.02734375 C-6.54759251 22.48940414 -1.47767367 11.52585465 0 0 Z " fill="#FEFEFE" transform="translate(1084,693)"/>
<path d="M0 0 C16.78040619 0 30.78176953 4.42541563 44 15 C44.83144531 15.64453125 45.66289063 16.2890625 46.51953125 16.953125 C60.579414 28.61570055 68.87509141 46.33104026 70.79708862 64.33200073 C71.19159605 69.5192186 71.12085741 74.71094669 71.09765625 79.91015625 C71.0962413 81.11820419 71.09482635 82.32625214 71.09336853 83.57090759 C71.08780395 87.40146437 71.07525803 91.23196111 71.0625 95.0625 C71.05748042 97.67122311 71.05291832 100.27994714 71.04882812 102.88867188 C71.03784613 109.25913481 71.02114354 115.62956311 71 122 C71.57612534 121.99111755 72.15225067 121.98223511 72.74583435 121.9730835 C78.83086047 121.88346636 84.91569445 121.82380055 91.0012207 121.78027344 C93.26171503 121.7603586 95.52215923 121.73321672 97.7824707 121.69824219 C120.02327784 121.36312699 140.00532942 123.23749761 157.4375 138.4375 C158.97857465 139.93781896 160.50062147 141.45801035 162 143 C162.69480469 143.67417969 163.38960937 144.34835937 164.10546875 145.04296875 C176.09860148 157.40726226 182.31285954 174.17735189 182.375 191.25 C182.03452039 210.92765819 175.43013049 227.35931625 161.8125 241.75 C136.34533092 266.16189964 105.50706948 263 71 263 C71 324.05 71 385.1 71 448 C120.83 448 170.66 448 222 448 C222 431.83 222 415.66 222 399 C225.77911508 383.88353967 229.69949495 371.52941563 240 360 C240.60457031 359.31421875 241.20914063 358.6284375 241.83203125 357.921875 C253.11977039 345.87548944 270.02448604 337.42714689 286.59765625 336.75 C307.97047019 336.29196569 325.93306204 341.95175292 341.87890625 356.7890625 C360.77631004 376.48690881 363.65877497 399.05435826 363.25 425 C363.22988801 427.23956722 363.21164562 429.47915204 363.1953125 431.71875 C363.1517278 437.14622455 363.08519489 442.57302724 363 448 C363.66604248 447.99333817 364.33208496 447.98667633 365.01831055 447.97981262 C372.0277823 447.91280681 379.03716129 447.8679322 386.046875 447.83520508 C388.6536835 447.82023267 391.26046732 447.79984758 393.8671875 447.77368164 C421.35174586 447.50494842 444.56160358 449.74210574 465.58203125 469.42578125 C478.58104767 483.26479873 485 500.12764279 485 519 C324.95 519 164.9 519 0 519 C0 347.73 0 176.46 0 0 Z " fill="#FEFEFD" transform="translate(600,164)"/>
<path d="M0 0 C3.6875 0.375 3.6875 0.375 5.67163086 2.42626953 C7.98433831 5.80920287 9.82544528 9.25715244 11.62890625 12.9296875 C11.99260818 13.65855667 12.35631012 14.38742584 12.73103333 15.13838196 C13.91018291 17.50591737 15.08032927 19.87776918 16.25 22.25 C17.07145701 23.9055138 17.89323676 25.5608675 18.71533203 27.21606445 C23.31720122 36.497299 27.8599093 45.80506529 32.29663086 55.16650391 C36.89345287 64.8559926 41.6051227 74.48889881 46.3125 84.125 C48.06389549 87.71089189 49.8151867 91.29683469 51.56640625 94.8828125 C52.00016068 95.77095139 52.4339151 96.65909027 52.8808136 97.57414246 C57.01607042 106.04351554 61.13508206 114.52073087 65.25 123 C70.81728018 134.47075749 76.39420555 145.93676025 81.98040771 157.39831543 C90.58664046 175.05638856 99.18963978 192.71601285 107.75683594 210.39306641 C109.03188646 213.02375014 110.30862826 215.65360171 111.58691406 218.28271484 C113.31245575 221.83213056 115.03166214 225.38459064 116.75 228.9375 C117.51074829 230.49960205 117.51074829 230.49960205 118.28686523 232.09326172 C118.96664429 233.50309326 118.96664429 233.50309326 119.66015625 234.94140625 C120.25195679 236.16259155 120.25195679 236.16259155 120.85571289 237.40844727 C121.6875 239.375 121.6875 239.375 121.6875 241.375 C122.3475 241.375 123.0075 241.375 123.6875 241.375 C124.06132812 240.14394531 124.43515625 238.91289063 124.8203125 237.64453125 C126.86503341 231.52349101 129.71207877 225.84131495 132.5625 220.0625 C133.7425465 217.64141287 134.92125356 215.21972926 136.09765625 212.796875 C136.39784164 212.17957016 136.69802704 211.56226532 137.00730896 210.92625427 C140.08173076 204.5905885 143.04797979 198.20601598 146 191.8125 C150.83336831 181.35506293 155.71261805 170.9205374 160.625 160.5 C165.66740982 149.80163638 170.69296362 139.09579968 175.6875 128.375 C180.68203713 117.65419871 185.70792037 106.94852021 190.75 96.25 C195.59352782 85.97249526 200.4127156 75.68466689 205.1875 65.375 C209.75484883 55.51921746 214.34306629 45.67348923 218.95996094 35.84082031 C219.63758163 34.3971383 220.31453566 32.95314314 220.99072266 31.50878906 C224.6138013 23.77198747 228.29786151 16.06980779 232.10546875 8.421875 C232.44894852 7.72982971 232.79242828 7.03778442 233.14631653 6.32476807 C235.56539504 1.49710496 235.56539504 1.49710496 236.6875 0.375 C239.35808851 0.23384839 242.01182238 0.33252893 244.6875 0.375 C246.90930147 4.42637064 248.12878368 7.73615629 248.62635803 12.32388306 C248.75905027 13.49476817 248.89174252 14.66565329 249.02845573 15.87201977 C249.16094278 17.1461136 249.29342983 18.42020742 249.42993164 19.73291016 C249.58083271 21.10356306 249.73275305 22.47410407 249.88560677 23.8445406 C250.29945451 27.58137809 250.69895624 31.31962789 251.09599471 35.05828357 C251.52144364 39.04086915 251.96012961 43.02199759 252.39729309 47.00331116 C253.14216672 53.80336499 253.87873601 60.60427551 254.60955811 67.40585327 C255.65201733 77.10716541 256.70832689 86.80693024 257.76815414 96.5063585 C260.94228475 125.56210676 264.07374302 154.6224575 267.1907196 183.68438721 C267.67033472 188.15611954 268.15076429 192.62776281 268.63215637 197.0993042 C268.74474761 198.14527267 268.85733885 199.19124115 268.97334194 200.26890564 C269.19243537 202.30415898 269.41157879 204.33940693 269.63077641 206.37464905 C270.24331632 212.06928355 270.84838517 217.76464558 271.44693661 223.46076679 C271.81097026 226.91419962 272.18039939 230.36704084 272.55112267 233.81976128 C272.71515509 235.35904478 272.87685354 236.89857957 273.03574562 238.43840218 C274.99628971 260.80901636 274.99628971 260.80901636 285.125 280.3125 C291.3583212 285.32956341 297.35782701 286.51218283 305.1875 286.75 C306.2909375 286.79898437 307.394375 286.84796875 308.53125 286.8984375 C312.76469517 286.19635625 314.1058956 284.75305682 316.6875 281.375 C317.89061278 278.27582613 317.89061278 278.27582613 318.4375 274.875 C318.65921875 273.7715625 318.8809375 272.668125 319.109375 271.53125 C321.06479097 258.75178921 320.83637834 245.84269712 320.83276367 232.9543457 C320.83576061 230.81104474 320.83916436 228.66774431 320.84294128 226.52444458 C320.85172684 220.73753454 320.85411697 214.9506393 320.85475707 209.16372323 C320.85547018 205.54352113 320.85760933 201.92332274 320.86025429 198.30312157 C320.86948665 185.66098162 320.87359144 173.01885219 320.87280273 160.37670898 C320.87220113 148.60972635 320.88277465 136.84278942 320.8985464 125.07581836 C320.91162984 114.95233931 320.91698636 104.82887521 320.91634732 94.70538777 C320.91609276 88.66786186 320.91892161 82.63037672 320.92952538 76.59285927 C320.93922095 70.91860691 320.9392755 65.24443419 320.93200874 59.57017899 C320.93096503 57.4925557 320.93331311 55.41492742 320.9393692 53.3373127 C320.94712164 50.49283343 320.94242303 47.64862711 320.93473816 44.80415344 C320.9424535 43.58297088 320.9424535 43.58297088 320.95032471 42.33711797 C320.90989078 35.52523218 320.40281668 28.47576477 317.0625 22.4375 C311.05524998 17.22067761 303.7481043 16.82430983 296.14746094 16.10864258 C290.89111749 15.57861749 290.89111749 15.57861749 288.6875 13.375 C288.32650045 10.55920348 288.18366215 9.03069777 289.94486809 6.73865318 C292.09711117 5.05446898 293.17245664 4.99817909 295.8821106 4.99404907 C296.73673889 4.9855896 297.59136719 4.97713013 298.47189331 4.96841431 C299.87436813 4.97752335 299.87436813 4.97752335 301.30517578 4.98681641 C302.78642944 4.97893097 302.78642944 4.97893097 304.29760742 4.97088623 C307.57616835 4.95764177 310.85424623 4.96644961 314.1328125 4.9765625 C316.41950575 4.97454079 318.70619836 4.97162855 320.9928894 4.96786499 C325.79984642 4.96343377 330.60663658 4.96989012 335.41357422 4.98388672 C341.5315056 5.00084396 347.64903821 4.99122856 353.76695442 4.97316933 C358.49949039 4.96223715 363.23193472 4.96582301 367.96447372 4.9735527 C370.21678592 4.97553583 372.4691068 4.97316284 374.72140884 4.96611404 C400.1715958 4.90403207 426.15031942 7.46057795 445.47265625 26 C456.44150687 37.76201266 462.1667264 52.19922628 461.61352539 68.30566406 C460.1861411 94.32396359 446.23477865 114.16052444 428.6875 132.375 C429.71488281 132.87128906 430.74226563 133.36757812 431.80078125 133.87890625 C456.71533288 146.03609759 478.00849955 161.91068624 487.65625 188.99609375 C494.44285408 211.23250485 492.52297644 232.72664424 482.16015625 253.42578125 C469.98398888 275.51478135 450.43888976 289.17903439 426.6875 296.375 C414.66860571 299.50186681 403.30804486 300.5390238 390.9375 300.5 C389.16826172 300.50580078 389.16826172 300.50580078 387.36328125 300.51171875 C381.37755515 300.50533057 375.43315702 300.38343723 369.46010494 300.01836586 C355.93035347 299.21286997 342.39739247 299.20818856 328.84834099 299.17576981 C324.43942893 299.16489717 320.03058835 299.14461901 315.62171936 299.12265015 C303.10323262 299.06131936 290.58475896 299.00647841 278.06616211 298.97363281 C271.11295854 298.95531227 264.15988372 298.92644213 257.20677477 298.8856281 C253.54103004 298.86457978 249.87544696 298.84910325 246.2096386 298.84682083 C242.14340111 298.84428394 238.07762071 298.81887752 234.01147461 298.79150391 C232.19528625 298.79601311 232.19528625 298.79601311 230.34240723 298.8006134 C229.23968979 298.78952042 228.13697235 298.77842743 227.00083923 298.76699829 C226.04141891 298.76368814 225.08199858 298.760378 224.09350491 298.75696754 C221.6875 298.375 221.6875 298.375 219.87494755 297.01065636 C218.20429275 294.70940344 218.33186929 293.14891957 218.6875 290.375 C222.0515607 287.0109393 226.81333444 287.52395455 231.40234375 287.03515625 C234.85575454 286.34118904 235.7064656 286.15413869 237.6875 283.375 C238.9596567 273.22059878 237.20510767 262.32119475 236.21875 252.17114258 C236.06054191 250.49241957 235.90292579 248.81364069 235.74584961 247.1348114 C235.40910271 243.54860716 235.06834507 239.96281598 234.72436523 236.37729836 C234.17971659 230.69877177 233.64486469 225.01934733 233.11132812 219.33976746 C232.0740209 208.31135991 231.02722318 197.28386387 229.97912598 186.25647736 C228.64433908 172.20961227 227.31301041 158.16242752 225.99202728 144.11425704 C225.46159784 138.47690909 224.92602948 132.84008087 224.38635254 127.20361102 C224.0510105 123.69074831 223.7199232 120.1774936 223.3899231 116.66412544 C223.2369335 115.04471623 223.08219531 113.42547104 222.92550659 111.80641556 C222.10477447 103.31629611 221.44449751 94.91690289 221.6875 86.375 C221.0275 86.375 220.3675 86.375 219.6875 86.375 C219.14222656 88.19064453 219.14222656 88.19064453 218.5859375 90.04296875 C216.63400323 95.88624457 213.9483826 101.32545567 211.2237854 106.84146118 C209.63244514 110.06512293 208.06112681 113.29853481 206.48828125 116.53125 C206.16617172 117.19240311 205.84406219 117.85355621 205.51219177 118.53474426 C202.42675349 124.88156566 199.45306005 131.27809795 196.5 137.6875 C191.20391266 149.16304197 185.8066072 160.58804701 180.375 172 C174.41215354 184.52985668 168.46422432 197.06622506 162.5625 209.625 C162.24003296 210.31118408 161.91756592 210.99736816 161.58532715 211.7043457 C161.26294067 212.39036865 160.9405542 213.0763916 160.60839844 213.78320312 C159.95639523 215.17057998 159.30437699 216.55794976 158.65234375 217.9453125 C158.16835617 218.97516266 158.16835617 218.97516266 157.67459106 220.02581787 C155.26918955 225.14228666 152.85687712 230.25546548 150.44140625 235.3671875 C150.08543869 236.12064453 149.72947113 236.87410156 149.36271667 237.65039062 C147.57701566 241.42948334 145.78991125 245.20790413 144.00073242 248.98535156 C140.43799924 256.51285702 136.90510685 264.05253771 133.421875 271.6171875 C132.3997276 273.82864608 131.3769683 276.03982065 130.35403442 278.25091553 C129.7082611 279.65196645 129.06566995 281.05448907 128.42648315 282.45855713 C127.5459657 284.39270696 126.65494883 286.32169575 125.76171875 288.25 C125.26244873 289.34054687 124.76317871 290.43109375 124.2487793 291.5546875 C122.67139602 294.40409041 121.18519971 296.29771732 118.6875 298.375 C115.75 299 115.75 299 112.6875 298.375 C107.56705431 293.22058602 104.49392429 286.87981504 101.1328125 280.5 C100.48180257 279.27375157 99.83077036 278.04751497 99.17971802 276.82128906 C90.92900811 261.21702215 83.05707738 245.41622158 75.18017578 229.62109375 C72.9998182 225.24897802 70.81220518 220.88053873 68.62268639 216.51300526 C59.10566366 197.52125277 49.78394167 178.47414515 40.95892334 159.14984131 C39.21990422 155.35448696 37.44680246 151.57575067 35.6640625 147.80078125 C34.82597046 146.021875 34.82597046 146.021875 33.97094727 144.20703125 C33.15001587 142.46486328 33.15001587 142.46486328 32.3125 140.6875 C24.61338725 124.32146322 17.13543451 107.85654156 9.6875 91.375 C8.3217747 101.80758663 7.17392269 112.23548043 6.26708984 122.71948242 C6.13894618 124.17545552 6.01056652 125.63140785 5.88197327 127.08734131 C5.53815283 130.99031017 5.19824998 134.89360957 4.85963392 138.79703307 C4.64677069 141.249674 4.43318039 143.7022506 4.21937943 146.15480995 C3.5470481 153.8693999 2.8770981 161.58419085 2.21073282 169.29929847 C1.44799326 178.13011124 0.67738803 186.96019023 -0.10012782 195.78971404 C-0.70532902 202.66788639 -1.30344985 209.5466526 -1.89641225 216.42589074 C-2.24865276 220.51069695 -2.60364492 224.59521358 -2.96608353 228.67912865 C-4.86945611 249.66789615 -4.86945611 249.66789615 -5.67333984 270.7199707 C-5.68804132 271.54781917 -5.70274281 272.37566763 -5.71788979 273.22860241 C-5.68811845 277.77480718 -5.14481578 280.76621476 -2.3125 284.375 C3.2858833 287.70737101 10.63607663 288.07043924 16.96484375 288.84765625 C19.6875 289.375 19.6875 289.375 21.6875 291.375 C21.5625 294.375 21.5625 294.375 20.6875 297.375 C17.21499263 299.93338241 13.36378441 299.66430739 9.22851562 299.6496582 C8.11073982 299.6573246 8.11073982 299.6573246 6.97038269 299.66514587 C4.51142305 299.67902642 2.05274412 299.67808652 -0.40625 299.67578125 C-2.11731063 299.67966858 -3.8283703 299.68400333 -5.53942871 299.68876648 C-9.12381114 299.69622504 -12.70809506 299.69593973 -16.29248047 299.69067383 C-20.88599778 299.68487483 -25.47911245 299.70182218 -30.07256317 299.7250185 C-33.60530963 299.73974759 -37.13795887 299.74062876 -40.67073059 299.73750877 C-42.36441344 299.73802224 -44.05810169 299.74326481 -45.75175476 299.75332069 C-48.11927512 299.76565419 -50.48600793 299.7589129 -52.85351562 299.74731445 C-53.55285721 299.75495819 -54.25219879 299.76260193 -54.97273254 299.77047729 C-58.00158193 299.73767149 -60.07809769 299.50164877 -62.76306152 298.0509491 C-64.3125 296.375 -64.3125 296.375 -64.5625 293.1875 C-64.48 292.259375 -64.3975 291.33125 -64.3125 290.375 C-60.72862019 288.76128196 -57.79002367 288.12075643 -53.875 287.9375 C-49.36563894 287.57384185 -46.09138115 287.04786715 -42.3125 284.375 C-36.57459475 277.3620047 -35.91390638 269.37891474 -34.9912262 260.68521118 C-34.87321103 259.61977313 -34.75519585 258.55433509 -34.63360447 257.45661104 C-34.24032086 253.89306477 -33.85567509 250.32863948 -33.47094727 246.76416016 C-33.19035736 244.20627424 -32.9092052 241.64844994 -32.62753296 239.09068298 C-32.02201417 233.58546812 -31.42070368 228.07980693 -30.82205391 222.57384109 C-29.95524261 214.60319218 -29.07982907 206.63350528 -28.20195519 198.66406803 C-26.77613126 185.71983532 -25.35425847 172.77517249 -23.9362793 159.83007812 C-23.8514694 159.05584697 -23.76665951 158.28161582 -23.67927962 157.48392312 C-22.7333564 148.84763226 -21.78856448 140.21121835 -20.84521484 131.574646 C-20.76042064 130.79835847 -20.67562643 130.02207094 -20.5882627 129.22225954 C-20.50355367 128.44675166 -20.41884463 127.67124378 -20.33156866 126.87223566 C-20.16074493 125.30837825 -19.98991931 123.74452105 -19.8190918 122.18066406 C-19.73469058 121.40798591 -19.65028937 120.63530776 -19.56333054 119.83921511 C-18.15450368 106.94358829 -16.73798754 94.04881923 -15.31538051 81.15470541 C-14.43896878 73.20819552 -13.56911953 65.2610211 -12.70777463 57.31286369 C-12.04688708 51.21957226 -11.37575921 45.12744873 -10.70087814 39.03569221 C-10.4261219 36.5403849 -10.15476666 34.04470038 -9.88708687 31.54862404 C-9.52079832 28.13758714 -9.14227629 24.7281182 -8.76075745 21.3187561 C-8.60665534 19.84193546 -8.60665534 19.84193546 -8.44944006 18.33528006 C-6.43148627 0.72809279 -6.43148627 0.72809279 0 0 Z M357.6875 23.375 C357.6875 58.025 357.6875 92.675 357.6875 128.375 C364.55654481 131.8095224 374.64114856 130.55836756 382.125 130.5625 C383.28837891 130.57474609 384.45175781 130.58699219 385.65039062 130.59960938 C400.02896517 130.64833027 400.02896517 130.64833027 411.8125 123.41015625 C412.43125 122.73855469 413.05 122.06695313 413.6875 121.375 C414.30625 120.71371094 414.925 120.05242187 415.5625 119.37109375 C427.31162483 105.62157913 427.71448572 88.53254635 426.6875 71.375 C424.9310307 55.85952115 418.48673613 40.86106419 406.6875 30.375 C397.29984779 23.41187529 388.20006914 20.86361565 376.625 21.0625 C375.68333984 21.05927734 374.74167969 21.05605469 373.77148438 21.05273438 C367.82836708 21.09822797 363.72232615 21.86629346 357.6875 23.375 Z M357.6875 145.375 C357.64093704 158.90206658 357.60550992 172.42911374 357.58387566 185.95624447 C357.57348665 192.23900646 357.55941772 198.52171317 357.53662109 204.80444336 C357.51471723 210.87989906 357.50289476 216.95530197 357.49774551 223.03079414 C357.494081 225.33614494 357.48692621 227.64149321 357.47603989 229.94682121 C356.09973588 253.35441453 356.09973588 253.35441453 363.6875 274.375 C370.35600127 278.95103899 377.72048787 281.38554849 385.6875 282.375 C386.48671875 282.48457031 387.2859375 282.59414062 388.109375 282.70703125 C405.41641919 284.77395532 421.61212845 282.80889232 436.1875 272.62890625 C446.89496258 263.9290929 451.74454526 251.69395471 453.6875 238.375 C455.82002509 215.28072256 448.99044026 190.74272965 434.4921875 172.6328125 C419.62391603 155.58869643 403.83502732 147.23558869 381.35987854 145.5255127 C376.7699331 145.26699952 372.18552217 145.29678398 367.58984375 145.328125 C366.6313855 145.33150879 365.67292725 145.33489258 364.6854248 145.33837891 C362.35274457 145.34710736 360.02014242 145.35936768 357.6875 145.375 Z " fill="#FDB414" transform="translate(383.3125,1543.625)"/>
<path d="M0 0 C8.52950313 7.31100268 16.78998211 14.71144061 24.68066406 22.69995117 C27.35005263 25.39036868 30.04766454 27.98570276 32.9375 30.4375 C37.2786307 34.12610166 41.21834341 38.19243757 45.22021484 42.23974609 C48.66020488 45.70370123 52.18544944 48.97117384 55.91015625 52.12890625 C59.27573064 55.14219622 62.40689608 58.3872099 65.58056641 61.60009766 C68.28428749 64.3242821 71.00749731 66.95350194 73.9375 69.4375 C77.65957693 72.60009982 81.06866072 76.02970696 84.5 79.5 C87.91070324 82.94937883 91.29621484 86.36119902 95 89.5 C99.32418706 93.1645653 103.24082291 97.21520866 107.22265625 101.2421875 C110.06641577 104.10574117 112.91875084 106.8887719 116 109.5 C120.32339894 113.16389741 124.23937981 117.21371646 128.22045898 121.23999023 C131.66036521 124.70386446 135.1855385 127.97124934 138.91015625 131.12890625 C142.27111118 134.13806029 145.39823189 137.37827216 148.56738281 140.58691406 C151.39808682 143.43918534 154.26374475 146.1899785 157.3125 148.8125 C157.88657339 149.31066221 158.46064678 149.80882442 159.05211633 150.32208246 C160.30386389 151.40034458 161.57275265 152.45918794 162.86176354 153.49261528 C166.40014909 156.57984151 168.41909355 158.8373141 168.8613348 163.60950375 C168.89053885 165.39047824 168.88153223 167.17233942 168.84178162 168.95310974 C168.84776259 169.93914328 168.85374356 170.92517682 168.85990578 171.94109017 C168.87141356 175.23694906 168.83297682 178.5302997 168.79467773 181.82592773 C168.79270275 184.1914616 168.79381246 186.55699976 168.79777527 188.92253113 C168.79978385 195.33964353 168.75862616 201.75584019 168.70975757 208.17273974 C168.66708738 214.20073842 168.66339403 220.22883886 168.65619446 226.25696064 C168.64088846 238.19385921 168.59434353 250.13042222 168.52807617 262.06713867 C168.4637854 273.65989508 168.41425501 285.25256021 168.38452148 296.84545898 C168.38268242 297.56049886 168.38084336 298.27553873 168.37894856 299.01224648 C168.36981305 302.59952857 168.36096715 306.1868113 168.35226524 309.77409446 C168.27974315 339.51628777 168.15596899 369.25812239 168 399 C166.7521875 398.85274475 165.504375 398.7054895 164.21875 398.55377197 C163.51685547 398.4709409 162.81496094 398.38810982 162.09179688 398.30276871 C158.972416 397.8512665 156.0207949 396.99858778 153 396.109375 C152.36621933 395.92451538 151.73243866 395.73965576 151.07945251 395.54919434 C149.05107594 394.95569125 147.02549866 394.35324432 145 393.75 C143.59718734 393.33657205 142.1942734 392.92348759 140.79125977 392.51074219 C136.85774135 391.35072289 132.92832502 390.17748793 129 389 C128.08331543 388.72542969 127.16663086 388.45085937 126.22216797 388.16796875 C119.5709542 386.16322488 112.97942589 384.02268864 106.44140625 381.671875 C100.99473056 379.7156797 100.99473056 379.7156797 95.54272461 377.77441406 C76.31906633 370.95776718 57.60599671 363.34736061 39 355 C37.87706543 354.49903809 36.75413086 353.99807617 35.59716797 353.48193359 C32.41489294 352.05924167 29.23745488 350.62644601 26.0625 349.1875 C24.70729248 348.57648438 24.70729248 348.57648438 23.32470703 347.953125 C15.33320411 344.28614253 7.80601298 340.16320692 0 336 C0 225.12 0 114.24 0 0 Z " fill="#FCB314" transform="translate(432,849)"/>
<path d="M0 0 C0.90255524 -0.0049649 1.80511047 -0.00992981 2.73501587 -0.01504517 C5.72903192 -0.02968397 8.72299502 -0.03647109 11.71704102 -0.04199219 C13.79207868 -0.04774153 15.86711632 -0.05349929 17.94215393 -0.05926514 C22.29591114 -0.06977954 26.64964985 -0.07561956 31.00341797 -0.07910156 C36.59024997 -0.08459201 42.17683895 -0.10862999 47.76359463 -0.13707352 C52.05032574 -0.15566793 56.3369979 -0.16090375 60.62376595 -0.16243744 C62.6839131 -0.16547094 64.74405905 -0.1735228 66.80416679 -0.18662262 C69.68213453 -0.20361891 72.55950288 -0.2018188 75.4375 -0.1953125 C76.72103615 -0.20913467 76.72103615 -0.20913467 78.03050232 -0.22323608 C83.84981038 -0.18188538 83.84981038 -0.18188538 86.00628757 1.52394485 C87.28344727 3.16113281 87.28344727 3.16113281 87.59594727 5.72363281 C87.28344727 8.16113281 87.28344727 8.16113281 85.28344727 10.16113281 C82.65069016 10.765799 80.06795345 11.27881275 77.40844727 11.72363281 C71.28204254 12.67191436 71.28204254 12.67191436 65.28344727 14.16113281 C60.28461867 23.0479392 60.99070917 33.96132128 61.00878906 43.8125 C61.00443508 45.38564799 60.99924965 46.95879387 60.99330139 48.53193665 C60.97996285 52.78683434 60.97932778 57.04164291 60.98186469 61.29655743 C60.98293954 64.86645341 60.97803712 68.43633174 60.97325927 72.00622392 C60.96217832 80.44670843 60.96171642 88.88714846 60.96777344 97.32763672 C60.97379008 105.98265376 60.96155798 114.63750729 60.94020337 123.29249644 C60.92246516 130.76131994 60.91660572 138.23009201 60.91984111 145.69893575 C60.92163739 150.14232022 60.91918777 154.58558849 60.90512657 159.02895355 C60.80175113 194.76353381 61.60764301 232.07352369 88.28344727 259.16113281 C103.20593121 274.11376319 122.29399741 278.7660392 142.78344727 279.47363281 C163.65822831 278.97213657 183.72267875 270.66122607 198.59594727 256.03222656 C202.61166379 251.74218057 205.57203744 247.36302277 208.28344727 242.16113281 C208.87770508 241.02546875 209.47196289 239.88980469 210.08422852 238.71972656 C213.83803276 231.09306086 216.23550111 223.32011787 218.09594727 215.03613281 C218.29075684 214.18631836 218.48556641 213.33650391 218.6862793 212.4609375 C222.91627266 191.9855335 222.58780072 170.94671128 222.55209827 150.14472127 C222.54694338 146.18668319 222.55175486 142.22865318 222.55487061 138.27061462 C222.5584802 131.63864442 222.55378801 125.00671919 222.54418945 118.37475586 C222.53327914 110.74922703 222.53686133 103.12380499 222.54784226 95.49827868 C222.55696401 88.89467372 222.55817762 82.29110059 222.55296493 75.68749136 C222.54987596 71.76766203 222.54935048 67.84788267 222.5560379 63.92805672 C222.56188383 60.24648868 222.55768453 56.56505656 222.54624939 52.88350296 C222.54241548 50.91731698 222.54822364 48.95111926 222.55450439 46.98493958 C222.52497361 40.65490945 222.2419911 34.40569836 221.51727295 28.11961365 C221.38038937 26.92935798 221.24350578 25.73910231 221.10247421 24.51277828 C220.16074327 20.659 218.74389208 18.25631249 216.28344727 15.16113281 C210.43351829 12.01117106 204.27259074 11.51004733 197.7434082 10.89453125 C192.48749077 10.36517632 192.48749077 10.36517632 190.28344727 8.16113281 C189.97094727 5.16113281 189.97094727 5.16113281 190.28344727 2.16113281 C194.00152711 -0.31758708 196.8755632 -0.13453409 201.1796875 -0.12939453 C202.3850264 -0.13947037 202.3850264 -0.13947037 203.61471558 -0.14974976 C206.27388676 -0.16876455 208.93280606 -0.17265556 211.59204102 -0.17480469 C213.43905237 -0.18122976 215.2860627 -0.1879579 217.1330719 -0.19497681 C221.00589356 -0.20695797 224.87862596 -0.21065673 228.75146484 -0.20947266 C233.71614213 -0.20926932 238.68024793 -0.23658285 243.6447897 -0.27101707 C247.45976902 -0.29324391 251.27460984 -0.29731151 255.08964729 -0.2962532 C256.92010533 -0.29861509 258.75056684 -0.30747157 260.58096123 -0.32291794 C263.14032011 -0.34249482 265.69843395 -0.33677338 268.2578125 -0.32470703 C269.01482956 -0.33594604 269.77184662 -0.34718506 270.55180359 -0.35876465 C274.04322497 -0.31689494 275.95606113 -0.08146362 278.79676819 2.02352905 C280.28344727 4.16113281 280.28344727 4.16113281 280.09594727 6.84863281 C279.28344727 9.16113281 279.28344727 9.16113281 278.28344727 10.16113281 C274.98265705 10.78662502 271.67957991 11.35473052 268.36157227 11.87988281 C264.11073574 12.61440236 260.76702124 13.44446505 257.28344727 16.16113281 C251.08358167 25.85388043 253.13402769 43.06547663 253.10986328 54.10693359 C253.09959789 56.10980581 253.08933039 58.11267801 253.07898414 60.1155498 C253.06885941 62.23604824 253.06095382 64.35654467 253.05365181 66.4770546 C253.03795605 70.9367156 253.01400988 75.39631075 252.98875427 79.85592651 C252.91819142 92.5266296 252.85801647 105.197369 252.80664062 117.86816406 C252.77809147 124.89142693 252.7425887 131.91462264 252.69998688 138.93781459 C252.67789668 142.63435793 252.65925725 146.33084089 252.64953804 150.02743912 C252.59380216 170.43588797 252.24404359 190.72355688 248.09594727 210.78613281 C247.88381592 211.82463379 247.67168457 212.86313477 247.453125 213.93310547 C241.38251357 242.11268044 227.23884286 265.67580438 203.04125977 281.84472656 C182.85355089 294.65020345 160.30006933 299.60187906 136.59594727 299.47363281 C135.54370972 299.47089859 135.54370972 299.47089859 134.47021484 299.46810913 C103.56731882 299.33317926 74.7267454 290.78872058 51.97094727 269.22363281 C21.58058558 237.24048487 21.00187764 192.36732073 20.94459343 150.93574595 C20.93627153 146.79742458 20.9153406 142.6591681 20.89538574 138.52088928 C20.84277059 127.15709023 20.80891998 115.79325158 20.77562714 104.42938232 C20.74482746 93.97290887 20.70990909 83.51649282 20.65931654 73.06009394 C20.63615757 68.1602417 20.62227632 63.26048273 20.61582184 58.36058128 C20.6098405 55.30731011 20.59571025 52.25411417 20.57947731 49.20088196 C20.57365547 47.79815217 20.57111767 46.39540379 20.57231712 44.99266243 C20.82049726 30.60969191 20.82049726 30.60969191 16.65844727 17.09863281 C10.50731282 12.08060208 3.35786286 11.6117431 -4.2565918 10.89477539 C-9.51293524 10.36475031 -9.51293524 10.36475031 -11.71655273 8.16113281 C-11.46655273 4.59863281 -11.46655273 4.59863281 -10.71655273 1.16113281 C-7.38933362 -0.50247675 -3.65880978 0.00476852 0 0 Z " fill="#FDB414" transform="translate(56.716552734375,1548.8388671875)"/>
<path d="M0 0 C1.07327545 0.00432037 2.1465509 0.00864075 3.25234985 0.01309204 C19.28717128 0.08863873 34.91052117 0.71645218 50.75 3.375 C52.63646711 3.68099427 54.52293449 3.98698694 56.40940857 4.29293823 C62.25830758 5.24455033 68.09902252 6.23611654 73.9375 7.25 C80.57759156 8.38349581 87.20161037 9.18180746 93.9140625 9.72265625 C97.45161027 10.53638969 98.73513713 11.35023043 100.75 14.375 C100.95703125 17.6328125 100.95703125 17.6328125 100.5625 21.5 C100.43260457 22.96215204 100.30373255 24.4243953 100.17578125 25.88671875 C100.10311035 26.63743652 100.03043945 27.3881543 99.95556641 28.16162109 C99.64174529 31.5406024 99.43825485 34.9247172 99.25 38.3125 C99.1876416 39.3651001 99.1876416 39.3651001 99.12402344 40.43896484 C98.82662667 45.83864588 98.66561108 51.23858044 98.53515625 56.64453125 C98.51653534 57.37884872 98.49791443 58.1131662 98.47872925 58.86973572 C98.38457708 62.58874637 98.29961079 66.30753898 98.23046875 70.02709961 C98.19701594 71.41911778 98.16317781 72.81112675 98.12890625 74.203125 C98.1038501 75.4396582 98.07879395 76.67619141 98.05297852 77.95019531 C97.74935588 81.38228104 96.97720943 84.16749989 95.75 87.375 C92.285 87.87 92.285 87.87 88.75 88.375 C85.98396448 84.4350502 85.40640753 81.71573592 85.3125 76.9375 C84.54504544 63.0943574 80.38011149 50.55509271 70.3125 40.6875 C44.42819216 20.03933077 5.06127097 17.99969956 -26.40844727 21.1484375 C-53.87288974 24.33605716 -78.5548516 33.20236428 -97.05859375 54.5859375 C-120.3607907 84.24327907 -126.24695708 123.23388619 -122.28320312 160.03027344 C-117.7507102 196.47320565 -100.07994558 230.29473239 -71.25 253.375 C-48.73714311 270.49278441 -21.46717636 280.12437722 6.75 281.375 C7.61882812 281.41625 8.48765625 281.4575 9.3828125 281.5 C31.22704024 281.99787414 55.69044566 279.77434015 73.5 266 C83.06246348 256.8532958 86.68692504 243.40202233 89.7421875 230.9453125 C90.75 227.375 90.75 227.375 92.75 225.375 C95.75 225.125 95.75 225.125 98.75 225.375 C101.72084495 228.34584495 101.72304906 231.34328557 101.75 235.375 C101.24228938 240.72363731 100.41823022 246.01125461 99.5625 251.3125 C99.44673615 252.04877625 99.33097229 252.78505249 99.21170044 253.54364014 C93.75626886 288.23766932 93.75626886 288.23766932 86.76953125 294.01171875 C45.18524517 313.81025496 -20.52349178 308.55240421 -63.04541016 294.44775391 C-85.38393168 286.48851641 -104.21758485 274.79911461 -121.25 258.375 C-122.02859375 257.65957031 -122.8071875 256.94414063 -123.609375 256.20703125 C-150.53867487 230.75788793 -162.36097118 192.44276671 -163.46875 156.24609375 C-164.32040798 112.76654367 -150.20378145 73.22883475 -120.25 41.375 C-119.7240625 40.78460937 -119.198125 40.19421875 -118.65625 39.5859375 C-103.91046293 23.71164631 -82.72867463 13.48796345 -62.25 7.375 C-61.610625 7.18212402 -60.97125 6.98924805 -60.3125 6.79052734 C-40.60568613 1.0006412 -20.42016031 -0.15681672 0 0 Z " fill="#FDB414" transform="translate(1043.25,1543.625)"/>
<path d="M0 0 C0 65.34 0 130.68 0 198 C-4.06288685 195.96855658 -6.12516639 194.04893481 -9.25 190.8125 C-12.34019609 187.64886139 -15.42725157 184.53900515 -18.8125 181.6875 C-22.75401502 178.33111711 -26.36138008 174.67682066 -30 171 C-34.16646205 166.78988722 -38.3528541 162.72758782 -42.87890625 158.90234375 C-46.4758365 155.67636763 -49.82234186 152.19672515 -53.21850586 148.76196289 C-56.68051016 145.27580858 -60.22846921 141.98345016 -63.9765625 138.8046875 C-66.59017576 136.47362702 -69.04153889 133.99183577 -71.5 131.5 C-74.51232082 128.44684107 -77.53548829 125.4592765 -80.8125 122.6875 C-84.75401502 119.33111711 -88.36138008 115.67682066 -92 112 C-96.16646205 107.78988722 -100.3528541 103.72758782 -104.87890625 99.90234375 C-108.4758365 96.67636763 -111.82234186 93.19672515 -115.21850586 89.76196289 C-118.68051016 86.27580858 -122.22846921 82.98345016 -125.9765625 79.8046875 C-128.5901583 77.4736426 -131.04178951 74.99206783 -133.5 72.5 C-137.33774952 68.61421189 -141.24276008 64.92909764 -145.44140625 61.4375 C-147 60 -147 60 -149 57 C-112.25628531 37.05826108 -73.31136564 22.52656943 -33.625 9.625 C-32.84699036 9.37178986 -32.06898071 9.11857971 -31.26739502 8.85769653 C-3.98642684 0 -3.98642684 0 0 0 Z " fill="#FBB315" transform="translate(264,164)"/>
</svg>
