<?xml version="1.0" encoding="UTF-8" standalone="no"?>
<!-- Created with Inkscape (http://www.inkscape.org/) -->

<svg
   version="1.1"
   id="svg1"
   width="384"
   height="591.18665"
   viewBox="0 0 384 591.18665"
   sodipodi:docname="UMBC-vertical-logo-CMYK.eps"
   xmlns:inkscape="http://www.inkscape.org/namespaces/inkscape"
   xmlns:sodipodi="http://sodipodi.sourceforge.net/DTD/sodipodi-0.dtd"
   xmlns="http://www.w3.org/2000/svg"
   xmlns:svg="http://www.w3.org/2000/svg">
  <defs
     id="defs1" />
  <sodipodi:namedview
     id="namedview1"
     pagecolor="#ffffff"
     bordercolor="#000000"
     borderopacity="0.25"
     inkscape:showpageshadow="2"
     inkscape:pageopacity="0.0"
     inkscape:pagecheckerboard="0"
     inkscape:deskcolor="#d1d1d1">
    <inkscape:page
       x="0"
       y="0"
       inkscape:label="1"
       id="page1"
       width="384"
       height="591.18665"
       margin="0"
       bleed="0" />
  </sodipodi:namedview>
  <g
     id="g1"
     inkscape:groupmode="layer"
     inkscape:label="1">
    <g
       id="group-R5">
      <path
         id="path2"
         d="m 2745.82,2591.44 c 0,0 -74.95,-1004.11 -1305.82,-1327.27 C 209.125,1587.33 134.18,2591.44 134.18,2591.44 v 1437.51 c 498.984,257.86 1157.04,270.79 1284.07,270.79 14.17,0 21.75,-0.16 21.75,-0.16 0,0 7.56,0.16 21.75,0.16 127.1,0 785.12,-12.95 1284.07,-270.79 z m 61.6,1556.71 c -526.33,271.99 -1213.3,285.76 -1345.67,285.76 -10.66,0 -18.01,-0.08 -21.75,-0.14 -3.73,0.05 -11.09,0.14 -21.74,0.14 -132.38,0 -819.342,-13.77 -1345.6819,-285.76 L 0,4110.64 v -81.69 -1437.51 -5 l 0.375,-4.99 C 1.23438,2569.92 23.5938,2295.46 210.063,1980.62 380.352,1693.1 726.051,1312.89 1405.93,1134.4 l 34.07,-8.95 34.07,8.95 c 679.89,178.49 1025.58,558.7 1195.86,846.22 186.48,314.84 208.84,589.3 209.7,600.83 l 0.37,4.99 v 5 1437.51 81.69 l -72.58,37.51"
         style="fill:#231f20;fill-opacity:1;fill-rule:nonzero;stroke:none"
         transform="matrix(0.13333333,0,0,-0.13333333,0,591.18667)" />
      <path
         id="path3"
         d="m 2603.87,2795.5 v -173.61 c 0,0 -66.81,-894.96 -1163.87,-1182.98 -154.3,40.51 -287.57,93.32 -403.79,153.66 -169.155,87.83 -301.37,191.96 -403.792,300.07 -327.563,345.73 -356.289,729.25 -356.289,729.25 v 499.14 782.1 l 0.004,0.01 c 112.976,58.38 235.09,102.54 356.285,136.14 141.203,39.15 281.062,63.85 403.792,79.31 232.83,29.33 403.79,25.75 403.79,25.75 0,0 669.52,14.25 1163.87,-241.21 z M 1440,4299.58 c 0,0 -7.58,0.16 -21.75,0.16 -127.03,0 -785.086,-12.93 -1284.07,-270.79 V 2591.44 c 0,0 74.945,-1004.11 1305.82,-1327.27 1230.87,323.16 1305.82,1327.27 1305.82,1327.27 v 1437.51 c -498.95,257.84 -1156.97,270.79 -1284.07,270.79 -14.19,0 -21.75,-0.16 -21.75,-0.16"
         style="fill:#c8c7c7;fill-opacity:1;fill-rule:nonzero;stroke:none"
         transform="matrix(0.13333333,0,0,-0.13333333,0,591.18667)" />
      <path
         id="path4"
         d="m 1036.21,3179.78 v 938.81 c -122.73,-15.46 -262.589,-40.16 -403.792,-79.31 v -475.21 l 403.792,-384.29"
         style="fill:#231f20;fill-opacity:1;fill-rule:nonzero;stroke:none"
         transform="matrix(0.13333333,0,0,-0.13333333,0,591.18667)" />
      <path
         id="path5"
         d="m 632.418,4039.28 c -121.195,-33.6 -243.309,-77.76 -356.285,-136.14 l 356.285,-339.07 v 475.21"
         style="fill:#f9ae0c;fill-opacity:1;fill-rule:nonzero;stroke:none"
         transform="matrix(0.13333333,0,0,-0.13333333,0,591.18667)" />
      <path
         id="path6"
         d="m 632.418,3564.07 v -782.12 l 403.792,-384.28 v 782.11 l -403.792,384.29"
         style="fill:#f9ae0c;fill-opacity:1;fill-rule:nonzero;stroke:none"
         transform="matrix(0.13333333,0,0,-0.13333333,0,591.18667)" />
      <path
         id="path7"
         d="m 632.418,3564.07 -356.285,339.07 -0.004,-0.01 v -782.1 l 356.289,-339.08 v 782.12"
         style="fill:#231f20;fill-opacity:1;fill-rule:nonzero;stroke:none"
         transform="matrix(0.13333333,0,0,-0.13333333,0,591.18667)" />
      <path
         id="path8"
         d="m 1440,2795.5 v 1348.84 c 0,0 -170.96,3.58 -403.79,-25.75 V 3179.78 L 1440,2795.5"
         style="fill:#f9ae0c;fill-opacity:1;fill-rule:nonzero;stroke:none"
         transform="matrix(0.13333333,0,0,-0.13333333,0,591.18667)" />
      <path
         id="path9"
         d="M 1036.21,2397.67 1440,2013.38 v 782.12 l -403.79,384.28 v -782.11"
         style="fill:#231f20;fill-opacity:1;fill-rule:nonzero;stroke:none"
         transform="matrix(0.13333333,0,0,-0.13333333,0,591.18667)" />
      <path
         id="path10"
         d="m 2435.1,2626.73 h -123.97 v -91.92 c 0,-88.15 -64.44,-166.86 -152.18,-175.23 -100.66,-9.6 -185.35,69.3 -185.35,167.97 v 99.18 h -364.84 v -446.28 h 91.92 c 88.16,0 166.87,-64.44 175.23,-152.19 9.61,-100.66 -69.3,-185.35 -167.97,-185.35 h -99.18 v -123.96 c 0,-93.21 -75.56,-168.77 -168.76,-168.77 v -111.27 c 1097.06,288.02 1163.87,1182.98 1163.87,1182.98 v 173.61 c 0,-93.21 -75.56,-168.77 -168.77,-168.77"
         style="fill:#ffffff;fill-opacity:1;fill-rule:nonzero;stroke:none"
         transform="matrix(0.13333333,0,0,-0.13333333,0,591.18667)" />
      <path
         id="path11"
         d="m 1440,2013.38 -403.79,384.29 v -805.1 c 116.22,-60.34 249.49,-113.15 403.79,-153.66 v 111.27 463.2"
         style="fill:#f9ae0c;fill-opacity:1;fill-rule:nonzero;stroke:none"
         transform="matrix(0.13333333,0,0,-0.13333333,0,591.18667)" />
      <path
         id="path12"
         d="m 1440,4144.34 v -103.52 c 93.2,0 168.76,-75.57 168.76,-168.77 v -123.97 h 99.18 c 98.67,0 177.58,-84.69 167.97,-185.35 -8.36,-87.74 -87.07,-152.18 -175.23,-152.18 h -91.92 v -446.29 h 364.84 v 99.18 c 0,98.67 84.69,177.57 185.35,167.97 87.74,-8.36 152.18,-87.08 152.18,-175.22 v -91.93 h 123.97 c 93.21,0 168.77,-75.55 168.77,-168.76 V 3903.13 C 2109.52,4158.59 1440,4144.34 1440,4144.34"
         style="fill:#db1f26;fill-opacity:1;fill-rule:nonzero;stroke:none"
         transform="matrix(0.13333333,0,0,-0.13333333,0,591.18667)" />
      <path
         id="path13"
         d="M 632.418,2781.95 V 1892.64 C 734.84,1784.53 867.055,1680.4 1036.21,1592.57 v 805.1 l -403.792,384.28"
         style="fill:#231f20;fill-opacity:1;fill-rule:nonzero;stroke:none"
         transform="matrix(0.13333333,0,0,-0.13333333,0,591.18667)" />
      <path
         id="path14"
         d="m 276.129,3121.03 v -499.14 c 0,0 28.726,-383.52 356.289,-729.25 v 889.31 l -356.289,339.08"
         style="fill:#f9ae0c;fill-opacity:1;fill-rule:nonzero;stroke:none"
         transform="matrix(0.13333333,0,0,-0.13333333,0,591.18667)" />
      <path
         id="path15"
         d="m 2435.1,2964.26 h -123.97 v 91.93 c 0,88.14 -64.44,166.86 -152.18,175.22 -100.66,9.6 -185.35,-69.3 -185.35,-167.97 v -99.18 h -364.84 v 446.29 h 91.92 c 88.16,0 166.87,64.44 175.23,152.18 9.61,100.66 -69.3,185.35 -167.97,185.35 h -99.18 v 123.97 c 0,93.2 -75.56,168.77 -168.76,168.77 V 2795.5 h 1163.87 c 0,93.21 -75.56,168.76 -168.77,168.76"
         style="fill:#ffffff;fill-opacity:1;fill-rule:nonzero;stroke:none"
         transform="matrix(0.13333333,0,0,-0.13333333,0,591.18667)" />
      <path
         id="path16"
         d="m 1440,2013.38 v -463.2 c 93.2,0 168.76,75.56 168.76,168.77 v 123.96 h 99.18 c 98.67,0 177.58,84.69 167.97,185.35 -8.36,87.75 -87.07,152.19 -175.23,152.19 h -91.92 v 446.28 h 364.84 v -99.18 c 0,-98.67 84.69,-177.57 185.35,-167.97 87.74,8.37 152.18,87.08 152.18,175.23 v 91.92 h 123.97 c 93.21,0 168.77,75.56 168.77,168.77 H 1440 v -782.12"
         style="fill:#db1f26;fill-opacity:1;fill-rule:nonzero;stroke:none"
         transform="matrix(0.13333333,0,0,-0.13333333,0,591.18667)" />
      <path
         id="path17"
         d="M 462.539,0 C 417.02,0 331.523,8.62109 270.25,66.4492 232.371,102.781 188.914,163.422 188.914,311.23 v 133.918 c 0,142.891 0,168.633 -1.824,197.832 -1.656,28.211 -7.188,41.809 -35.598,47.829 -6.965,1.742 -21.98,2.66 -30.183,2.66 -5.911,0 -12.2,3.633 -12.2,10.363 0,12.199 13.696,12.199 19.543,12.199 28.465,0 64.395,-1.332 85.86,-2.121 10.074,-0.371 17.121,-0.64 19.625,-0.64 2.797,0 11.25,0.332 22.019,0.761 l 0.848,0.028 c 21.469,0.832 50.207,1.972 67.945,1.972 5.848,0 19.539,0 19.539,-12.199 0,-6.73 -6.285,-10.363 -12.199,-10.363 -5.934,0 -11.199,-0.879 -21.684,-2.617 C 289.719,687.75 282.133,675.68 280.266,643 278.438,613.781 278.438,588.039 278.438,445.148 V 316.73 c 0,-140 34.019,-191.32 67.292,-223.0581 43.551,-40.8828 84.004,-49.0899 135.161,-49.0899 53.328,0 107.078,24.6289 140.277,64.289 36.492,45.219 52.074,111.52 52.074,221.621 v 114.656 c 0,142.891 0,168.633 -1.832,197.832 -1.648,28.211 -7.18,41.809 -35.594,47.829 -6.968,1.742 -21.976,2.66 -30.179,2.66 -5.914,0 -12.199,3.633 -12.199,10.363 0,12.199 13.687,12.199 19.535,12.199 30.254,0 65.382,-1.492 84.254,-2.281 7.046,-0.289 11.55,-0.48 12.976,-0.48 1.93,0 7.547,0.281 14.746,0.628 l 1.168,0.051 c 17.031,0.832 42.528,2.082 61.145,2.082 5.843,0 19.535,0 19.535,-12.199 0,-6.73 -6.285,-10.363 -12.195,-10.363 -6.082,0 -11.332,0 -21.758,-2.617 -21.11,-3.922 -28.418,-15.543 -30.27,-47.852 -1.82,-29.219 -1.82,-54.961 -1.82,-197.852 V 347 C 740.754,168.352 694.781,104.641 654.727,69.1094 585.051,7.17188 511.672,0 462.539,0"
         style="fill:#231f20;fill-opacity:1;fill-rule:nonzero;stroke:none"
         transform="matrix(0.13333333,0,0,-0.13333333,0,591.18667)" />
      <path
         id="path18"
         d="m 1827.33,680.629 c -4.19,0 -25.94,-0.219 -42.85,-4.457 -7.33,-1.621 -7.33,-3.192 -7.33,-5.371 V 424.969 c 0,-4.227 0.45,-4.399 3.37,-5.567 5.06,-0.742 21.29,-3.332 54.15,-3.332 51.27,0 61.82,1.641 79.81,22.2 20.23,23.109 31.83,55.722 31.83,89.441 0,70.539 -31.16,152.918 -118.98,152.918 z M 1777.2,381.551 c 0.04,-0.129 -0.05,-0.61 -0.05,-1.52 v -52.289 c 0,-68.902 0,-184.211 0.91,-197.812 l 0.22,-3.649 c 2.53,-41.7888 3.14,-51.7107 28.22,-63.8513 26.23,-12.6289 70.09,-13.2695 78.62,-13.2695 57.42,0 124.48,32.832 124.48,125.3908 0,35.98 -8.47,125.48 -86.88,179.461 -30.02,20.297 -52.16,23.058 -73.57,25.718 -8.21,1.262 -32.04,1.86 -71.35,1.86 -0.29,0 -0.49,-0.02 -0.6,-0.039 z m 82.23,-371.4612 c -13.1,0 -54.41,2.129 -84.58,3.6915 l -3.73,0.1992 c -17.42,0.8906 -31.17,1.6211 -33.69,1.6211 -1.27,0 -7.08,-0.25 -15.12,-0.5625 -13.01,-0.5274 -238.85,-0.9375 -256.63,-0.9375 -5.84,0 -19.53,0 -19.53,12.1992 0,5.168 3.77,10.3594 12.19,10.3594 6.59,0 16.48,1.3398 26.46,3.5703 2.29,0.4414 13.14,4 9.3,30.9492 L 1451.16,531.691 1225.4,52.6094 c -14.87,-31.3985 -17.95,-37.9297 -28.28,-37.9297 -9.11,0 -13.27,7.8906 -30.8,41.1094 l -1.93,3.6523 c -9.98,18.8281 -36.2,70.0196 -104.39,206.9496 l -2.98,5.98 c -8.69,17.359 -94.317,201.051 -116.606,251.098 L 904.766,109.922 c -0.899,-14.4025 -0.899,-30.6407 -0.899,-46.3517 0,-11.4101 8.391,-21.3594 19.946,-23.6797 15.089,-3.5508 28.398,-4.4922 33.902,-4.4922 5.996,0 12.195,-3.5273 12.195,-9.4375 0,-13.1289 -14.972,-13.1289 -21.371,-13.1289 -23.387,0 -50.805,1.2696 -68.949,2.1094 L 878.301,15 c -7.504,0.3398 -12.918,0.6016 -15.071,0.6016 -2.8,0 -9.917,-0.3516 -19.015,-0.7696 l -1.5,-0.082 c -17.344,-0.8086 -40.785,-1.918 -56.531,-1.918 -13.571,0 -20.457,4.418 -20.457,13.1289 0,6.1993 7.066,9.4375 14.039,9.4375 7.125,0 13.269,0 26.558,2.6602 25.805,4.6914 29.043,35.7031 32.465,68.5114 l 0.352,3.36 66.047,598.09 c 1.152,6.402 3.773,20.851 14.917,20.851 9.817,0 14.528,-8.582 18.18,-16.609 l 276.185,-567.711 265.35,566.847 c 2.91,6.493 7.81,17.473 18.18,17.473 11.79,0 14.22,-13.781 15.84,-29.109 l 61.44,-563.211 c 3.39,-30.469 9.04,-81.1916 46.19,-93.1213 18.21,-5.8711 39.67,-5.5977 45.62,-3.8086 15.58,4.668 19.24,22.668 22.42,45.6914 4.54,38.1675 4.54,108.8785 4.54,198.3985 v 161.437 c 0,142.891 0,168.633 -1.82,197.832 -1.66,28.211 -7.2,41.821 -35.61,47.829 -6.96,1.742 -21.98,2.66 -30.17,2.66 -6.96,0 -12.2,4.453 -12.2,10.363 0,12.199 13.68,12.199 19.53,12.199 30.33,0 70.7,-1.539 90.1,-2.281 l 4.74,-0.168 c 4.75,-0.184 7.88,-0.312 8.81,-0.312 h 0.01 c 9.24,0 21.37,0.511 34.21,1.05 18.44,0.762 41.22,1.711 65.77,1.711 148.64,0 188.31,-89.551 188.31,-142.461 0,-74.961 -42.97,-121.89 -82.23,-162.898 36.86,-12.84 72.88,-35.723 99.44,-63.281 36.15,-37.461 55.26,-83.27 55.26,-132.481 0,-52.379 -21.73,-103.5 -59.61,-140.2811 -43.52,-42.2187 -105.46,-64.5391 -179.16,-64.5391"
         style="fill:#231f20;fill-opacity:1;fill-rule:nonzero;stroke:none"
         transform="matrix(0.13333333,0,0,-0.13333333,0,591.18667)" />
      <path
         id="path19"
         d="m 2531.83,0 c -132.6,0 -229.82,31.8789 -305.95,100.301 -74.73,67.031 -112.61,159.59 -112.61,275.14 0,72.36 27.36,177.059 104.16,253.86 67.01,67 159.64,99.57 283.21,99.57 22.09,0 79.36,-1.09 133.87,-11.09 l 2.59,-0.48 c 33.43,-6.16 62.14,-11.449 90.42,-13.219 7.12,-0.641 16.47,-2.883 16.47,-14.934 0,-3.187 -0.43,-6.656 -1.07,-11.918 -0.98,-7.949 -2.42,-19.808 -3.53,-39.718 -1.04,-17.282 -1.49,-41.582 -1.85,-61.09 -0.27,-15.051 -0.5,-27.492 -0.9,-33.442 -0.62,-9.468 -1.56,-23.8 -13.1,-23.8 -12.19,0 -12.19,13.371 -12.19,24.121 0,35.121 -14.8,71.219 -36.81,89.859 -29.71,25.449 -96.97,51.129 -180.32,51.129 -140.08,0 -190.89,-49.367 -207.59,-65.59 -71.45,-68.508 -81.08,-157.707 -81.08,-235.929 0,-84.969 33.03,-168.879 90.64,-230.231 60.93,-64.8906 144.62,-100.6288 235.64,-100.6288 99.14,0 133.62,21.3398 156.12,44.3984 18.52,19.3904 29.98,58.5434 32.63,74.4534 1.37,7.547 3.23,17.82 13.97,17.82 3.39,0 11.27,-1.812 11.27,-18.621 0,-7 -11.06,-87.1407 -20.38,-118.7696 -5.89,-18.6719 -8.61,-21.7226 -26.53,-29.6797 C 2659.23,5.64063 2586.6,0 2531.83,0"
         style="fill:#231f20;fill-opacity:1;fill-rule:nonzero;stroke:none"
         transform="matrix(0.13333333,0,0,-0.13333333,0,591.18667)" />
    </g>
  </g>
</svg>
